SplineFontDB: 3.0
FontName: DOF-1-Regular
FullName: DOF-1-Regular
FamilyName: DOF-1
Weight: Regular

StartChar: exclam
Encoding: 33 33 1
Width: 303
VWidth: 910
Flags: HW
LayerCount: 2
Fore
SplineSet
134 818 m 0
 159 822 189 816 199 806 c 2
 202 804 l 1
 202 443 l 1
 202 84 l 1
 198 79 l 2
 190 72 174 68 152 68 c 0
 129 68 113 72 105 79 c 2
 101 84 l 1
 101 443 l 1
 101 803 l 1
 104 806 l 2
 109 811 119 815 134 818 c 0
136 36 m 0
 145 37 168 37 177 35 c 0
 210 28 210 10 177 3 c 0
 164 0 139 0 126 3 c 0
 111 7 101 12 101 18 c 0
 101 26 114 33 136 36 c 0
EndSplineSet
EndChar

StartChar: quotedbl
Encoding: 34 34 2
Width: 303
VWidth: 910
Flags: HW
LayerCount: 2
Fore
SplineSet
63 818 m 0
 88 822 118 816 128 806 c 2
 131 804 l 1
 131 740 l 2
 131 678 131 677 129 674 c 0
 124 666 104 661 81 661 c 0
 57 661 37 666 32 674 c 0
 30 677 30 678 30 740 c 2
 30 803 l 1
 33 806 l 2
 38 811 48 815 63 818 c 0
205 818 m 0
 230 822 260 816 270 806 c 2
 273 804 l 1
 273 740 l 2
 273 678 273 677 271 674 c 0
 266 666 246 661 223 661 c 0
 199 661 179 666 174 674 c 0
 172 677 172 678 172 740 c 2
 172 803 l 1
 175 806 l 2
 180 811 190 815 205 818 c 0
EndSplineSet
EndChar

StartChar: numbersign
Encoding: 35 35 3
Width: 607
VWidth: 910
Flags: HW
LayerCount: 2
Fore
SplineSet
258 613 m 0
 272 615 293 614 305 610 c 0
 315 607 322 602 323 597 c 0
 324 596 290 479 275 431 c 0
 275 429 279 429 340 429 c 2
 404 429 l 1
 406 434 l 2
 427 506 454 599 456 601 c 0
 460 606 468 610 481 613 c 0
 493 615 518 615 530 612 c 0
 545 608 554 602 554 596 c 0
 554 594 544 557 531 512 c 0
 517 467 506 430 506 430 c 2
 506 429 513 429 521 429 c 0
 548 429 567 424 574 416 c 0
 576 414 577 412 577 410 c 0
 577 407 572 402 567 400 c 0
 556 394 542 391 515 391 c 2
 495 391 l 1
 471 309 l 2
 457 263 446 225 445 224 c 0
 445 223 449 223 460 223 c 0
 482 223 494 221 506 216 c 0
 521 209 519 196 501 191 c 0
 489 187 484 187 459 186 c 2
 434 186 l 1
 411 107 l 2
 382 5 384 15 380 11 c 0
 365 -2 316 -4 293 7 c 0
 288 10 285 13 284 17 c 0
 283 18 317 136 332 184 c 0
 332 186 329 186 268 186 c 2
 203 186 l 1
 201 180 l 2
 180 108 153 16 151 14 c 0
 147 9 140 5 127 2 c 0
 115 0 89 0 77 3 c 0
 62 7 53 12 53 18 c 0
 53 20 63 58 76 103 c 0
 90 148 101 185 101 185 c 2
 101 186 94 186 86 186 c 0
 59 186 40 190 33 198 c 0
 29 203 29 205 33 210 c 0
 41 219 58 223 92 223 c 2
 113 223 l 1
 137 306 l 2
 151 352 161 389 162 390 c 0
 162 391 158 391 147 391 c 0
 125 391 113 394 101 399 c 0
 86 406 88 418 106 423 c 0
 118 427 123 428 148 429 c 2
 173 430 l 1
 197 508 l 2
 226 609 223 599 227 603 c 0
 232 608 244 611 258 613 c 0
389 376 m 2
 393 391 l 1
 329 391 l 2
 278 391 264 391 263 390 c 0
 263 389 252 353 238 308 c 0
 225 262 215 225 215 224 c 0
 214 223 227 223 279 223 c 2
 343 224 l 1
 364 292 l 2
 375 330 386 368 389 376 c 2
EndSplineSet
EndChar

StartChar: dollar
Encoding: 36 36 4
Width: 546
VWidth: 910
Flags: HW
LayerCount: 2
Fore
SplineSet
256 818 m 0
 281 822 311 816 321 806 c 2
 324 804 l 1
 324 765 l 1
 324 726 l 1
 330 725 l 2
 346 723 362 722 373 719 c 0
 399 714 427 703 444 691 c 0
 469 675 484 650 486 625 c 2
 486 617 l 1
 483 613 l 2
 477 607 465 604 447 602 c 0
 422 599 396 604 389 613 c 0
 386 616 385 617 385 624 c 0
 383 647 370 666 349 677 c 0
 343 681 332 684 327 685 c 2
 324 686 l 1
 324 552 l 1
 324 416 l 1
 347 407 l 2
 372 397 401 383 416 374 c 0
 455 349 477 320 484 284 c 0
 486 274 486 244 484 231 c 0
 479 198 467 169 447 148 c 0
 434 134 421 126 402 116 c 0
 382 107 362 100 337 96 c 2
 325 94 l 1
 324 55 l 1
 324 15 l 1
 321 13 l 2
 304 -4 241 -3 226 13 c 2
 223 16 l 1
 223 55 l 1
 223 93 l 1
 218 93 l 1
 175 98 144 105 118 119 c 0
 83 136 64 163 61 194 c 2
 61 202 l 1
 64 206 l 2
 70 212 82 216 100 218 c 0
 125 221 151 215 158 206 c 0
 161 203 162 202 162 195 c 0
 164 172 177 153 198 142 c 0
 204 138 220 133 222 133 c 0
 223 133 223 193 223 267 c 2
 223 400 l 1
 221 401 l 2
 220 401 209 406 196 411 c 0
 170 421 140 436 125 445 c 0
 91 467 70 492 61 520 c 0
 52 547 53 585 64 618 c 0
 71 639 81 658 96 673 c 0
 110 686 121 693 138 701 c 0
 159 712 182 719 207 723 c 0
 213 724 220 724 221 725 c 2
 223 725 l 1
 223 764 l 1
 223 803 l 1
 226 806 l 2
 231 811 241 815 256 818 c 0
223 569 m 2
 223 631 223 681 222 681 c 0
 221 681 210 675 205 671 c 0
 179 652 162 621 157 581 c 0
 153 544 159 516 180 491 c 0
 188 481 203 470 219 460 c 2
 223 458 l 1
 223 569 l 2
341 346 m 0
 337 349 333 352 330 354 c 2
 324 358 l 1
 324 249 l 2
 324 189 324 140 325 140 c 0
 327 140 339 149 344 154 c 0
 369 176 385 215 385 259 c 0
 385 295 370 325 341 346 c 0
EndSplineSet
EndChar

StartChar: percent
Encoding: 37 37 5
Width: 667
VWidth: 910
Flags: HW
LayerCount: 2
Fore
SplineSet
143 824 m 0
 155 825 173 825 181 824 c 0
 202 821 216 813 216 806 c 0
 216 797 201 791 177 788 c 0
 168 787 167 787 162 784 c 0
 151 777 141 760 136 741 c 0
 132 726 131 711 131 691 c 0
 132 660 137 640 146 620 c 0
 151 608 162 593 166 593 c 0
 170 593 180 608 185 619 c 0
 194 638 197 658 199 688 c 0
 199 705 201 706 207 710 c 0
 231 725 288 720 299 705 c 0
 301 702 300 701 300 686 c 0
 298 640 288 608 267 586 c 0
 246 563 210 551 167 551 c 0
 130 551 99 560 76 576 c 0
 51 594 37 623 32 665 c 0
 30 680 30 721 32 732 c 0
 39 770 56 793 86 808 c 0
 101 815 123 822 143 824 c 0
570 818 m 0
 590 821 614 818 627 811 c 0
 632 809 637 804 637 801 c 0
 637 799 533 638 383 405 c 0
 157 56 129 12 125 9 c 0
 108 -2 62 -3 40 7 c 0
 35 11 30 15 30 19 c 0
 31 21 534 800 539 806 c 0
 543 811 556 816 570 818 c 0
481 268 m 0
 493 269 511 269 520 268 c 0
 564 261 563 238 518 232 c 0
 509 231 504 228 497 221 c 0
 479 203 468 166 468 120 c 0
 468 87 475 62 488 46 c 0
 493 41 500 34 502 34 c 0
 504 34 511 41 516 46 c 0
 528 61 534 82 536 110 c 2
 536 122 l 1
 541 126 l 2
 548 133 564 137 587 137 c 0
 609 137 626 133 634 125 c 2
 637 121 l 1
 637 108 l 2
 636 85 632 68 624 52 c 0
 608 19 575 0 527 -5 c 0
 514 -7 484 -6 470 -4 c 0
 451 0 429 7 417 14 c 0
 390 29 375 52 369 87 c 0
 367 98 367 139 369 154 c 0
 375 204 394 236 429 253 c 0
 443 260 463 266 481 268 c 0
EndSplineSet
EndChar

StartChar: ampersand
Encoding: 38 38 6
Width: 546
VWidth: 910
Flags: HW
LayerCount: 2
Fore
SplineSet
250 824 m 0
 296 829 344 818 377 799 c 0
 429 769 455 708 455 618 c 0
 455 601 455 590 451 575 c 0
 443 541 426 514 397 483 c 0
 376 462 354 445 306 409 c 2
 274 386 l 1
 284 367 l 2
 324 289 381 194 423 137 c 2
 430 129 l 1
 444 130 l 2
 471 131 493 126 499 117 c 0
 501 114 501 113 501 106 c 0
 500 92 494 79 487 66 c 2
 485 62 l 1
 491 56 l 2
 498 48 514 35 521 30 c 0
 529 25 531 23 531 18 c 0
 531 12 521 7 506 3 c 0
 499 1 495 1 482 1 c 0
 457 0 446 3 432 13 c 0
 427 16 424 17 423 17 c 2
 418 15 l 2
 404 9 371 2 348 -1 c 0
 306 -6 260 -7 228 -2 c 0
 193 3 160 16 136 33 c 0
 94 62 70 111 63 177 c 0
 61 192 61 223 62 235 c 0
 68 291 98 334 165 389 c 2
 168 391 l 1
 159 411 l 2
 124 482 101 544 93 590 c 0
 88 615 92 666 100 700 c 0
 115 762 151 800 208 816 c 0
 220 820 236 823 250 824 c 0
282 785 m 0
 277 787 274 787 273 787 c 0
 272 787 269 787 264 785 c 0
 235 772 212 741 200 696 c 0
 193 664 190 617 194 592 c 0
 200 558 217 507 241 455 c 2
 245 447 l 1
 259 459 l 2
 286 481 302 495 317 512 c 0
 343 546 354 577 354 618 c 0
 354 704 327 766 282 785 c 0
212 309 m 0
 207 317 204 323 204 323 c 2
 203 323 192 308 188 302 c 0
 177 286 168 262 164 244 c 0
 163 237 163 229 163 212 c 0
 163 165 170 130 186 99 c 0
 201 66 225 45 255 35 c 0
 265 32 278 31 299 33 c 0
 324 35 339 39 356 46 c 0
 364 51 375 57 378 60 c 0
 379 61 377 63 373 68 c 0
 326 122 265 214 212 309 c 0
EndSplineSet
EndChar

StartChar: parenleft
Encoding: 40 40 7
Width: 212
VWidth: 910
Flags: HW
LayerCount: 2
Fore
SplineSet
114 848 m 0
 129 850 150 850 163 845 c 0
 174 842 182 836 182 831 c 0
 182 827 177 822 171 819 c 0
 166 816 166 815 162 810 c 0
 155 794 149 765 143 708 c 0
 138 663 135 620 133 560 c 0
 131 518 131 301 133 260 c 0
 135 199 138 156 143 112 c 0
 149 54 155 25 162 9 c 0
 166 4 166 3 171 0 c 0
 177 -3 182 -8 182 -11 c 0
 182 -15 177 -20 172 -22 c 0
 156 -31 124 -32 100 -26 c 0
 66 -18 55 3 46 76 c 0
 39 130 35 185 32 259 c 0
 30 300 30 520 32 562 c 0
 35 635 39 690 46 744 c 0
 55 817 66 838 100 846 c 0
 104 847 110 847 114 848 c 0
EndSplineSet
EndChar

StartChar: parenright
Encoding: 41 41 8
Width: 212
VWidth: 910
Flags: HW
LayerCount: 2
Fore
SplineSet
63 848 m 0
 78 850 98 850 113 846 c 0
 146 838 157 817 166 744 c 0
 173 690 177 635 180 562 c 0
 182 520 182 300 180 259 c 0
 177 185 173 130 166 76 c 0
 157 3 146 -18 113 -26 c 0
 88 -32 56 -31 40 -22 c 0
 35 -20 30 -15 30 -11 c 0
 30 -8 35 -3 41 0 c 0
 46 3 46 4 50 9 c 0
 57 25 63 54 69 112 c 0
 74 156 77 199 79 260 c 0
 81 301 81 518 79 560 c 0
 77 620 74 663 69 708 c 0
 63 765 57 794 50 810 c 0
 46 815 46 816 41 819 c 0
 35 822 30 827 30 831 c 0
 30 832 31 834 33 836 c 0
 38 841 48 845 63 848 c 0
EndSplineSet
EndChar

StartChar: asterisk
Encoding: 42 42 9
Width: 485
VWidth: 910
Flags: HW
LayerCount: 2
Fore
SplineSet
225 818 m 0
 250 822 280 816 290 806 c 2
 293 804 l 1
 293 776 l 1
 293 747 l 2
 294 747 297 749 301 751 c 0
 306 754 313 756 318 757 c 0
 325 759 328 759 345 759 c 0
 362 759 365 759 372 757 c 0
 386 753 395 747 395 741 c 0
 395 740 394 737 392 736 c 0
 390 733 372 723 347 708 c 0
 323 694 304 684 304 683 c 2
 304 683 323 671 348 657 c 0
 393 631 395 629 395 624 c 0
 395 621 390 616 385 613 c 0
 373 608 351 604 333 606 c 0
 319 607 309 610 300 615 c 2
 293 619 l 1
 293 591 l 2
 293 560 293 561 286 556 c 0
 262 541 205 546 194 561 c 0
 192 564 192 565 192 591 c 2
 192 619 l 1
 185 615 l 2
 176 610 166 607 152 606 c 0
 134 604 112 608 100 613 c 0
 95 616 90 621 90 624 c 0
 90 629 92 631 137 657 c 0
 162 671 181 683 181 683 c 2
 181 684 162 694 138 708 c 0
 113 723 95 733 93 736 c 0
 91 737 90 740 90 741 c 0
 90 747 99 753 114 757 c 0
 120 759 123 759 140 759 c 0
 157 759 160 759 167 757 c 0
 172 756 179 754 184 751 c 0
 188 749 191 747 192 747 c 2
 192 775 l 1
 192 803 l 1
 195 806 l 2
 200 811 210 815 225 818 c 0
EndSplineSet
EndChar

StartChar: plus
Encoding: 43 43 10
Width: 607
VWidth: 910
Flags: HW
LayerCount: 2
Fore
SplineSet
286 613 m 0
 311 617 341 612 351 602 c 2
 354 599 l 1
 354 462 l 1
 354 326 l 1
 445 326 l 2
 541 326 544 326 558 321 c 0
 569 318 577 313 577 308 c 0
 577 303 569 296 558 293 c 0
 544 288 541 289 445 289 c 2
 354 289 l 1
 354 152 l 1
 354 15 l 1
 351 13 l 2
 334 -4 271 -3 256 13 c 2
 253 16 l 1
 253 153 l 1
 253 289 l 1
 162 289 l 2
 66 289 63 288 49 293 c 0
 38 296 30 303 30 308 c 0
 30 313 38 318 49 321 c 0
 63 326 66 326 162 326 c 2
 253 326 l 1
 253 461 l 1
 253 598 l 1
 256 602 l 2
 261 607 271 610 286 613 c 0
EndSplineSet
EndChar

StartChar: comma
Encoding: 44 44 11
Width: 182
VWidth: 910
Flags: HW
LayerCount: 2
Fore
SplineSet
74 36 m 0
 99 40 129 35 139 25 c 2
 142 22 l 1
 142 8 l 2
 140 -29 131 -64 115 -96 c 0
 109 -109 107 -111 100 -114 c 0
 90 -119 82 -120 66 -121 c 0
 44 -121 28 -118 17 -112 c 0
 13 -110 10 -106 10 -103 c 0
 10 -102 12 -96 15 -91 c 0
 30 -59 39 -27 41 9 c 0
 41 21 41 21 44 25 c 0
 49 30 59 33 74 36 c 0
EndSplineSet
EndChar

StartChar: hyphen
Encoding: 45 45 12
Width: 607
VWidth: 910
Flags: HW
LayerCount: 2
Fore
SplineSet
63 325 m 0
 68 326 121 326 303 326 c 0
 551 326 543 326 558 321 c 0
 569 318 577 313 577 308 c 0
 577 303 569 296 558 293 c 0
 543 288 551 289 304 289 c 0
 106 289 70 288 63 289 c 0
 48 292 38 296 33 301 c 0
 29 306 29 308 33 313 c 0
 38 318 48 322 63 325 c 0
EndSplineSet
EndChar

StartChar: period
Encoding: 46 46 13
Width: 182
VWidth: 910
Flags: HW
LayerCount: 2
Fore
SplineSet
73 44 m 0
 104 48 139 40 148 29 c 0
 153 24 153 20 148 15 c 0
 136 0 90 -4 56 5 c 0
 40 9 30 16 30 22 c 0
 30 27 36 31 42 35 c 0
 49 39 63 43 73 44 c 0
EndSplineSet
EndChar

StartChar: slash
Encoding: 47 47 14
Width: 425
VWidth: 910
Flags: HW
LayerCount: 2
Fore
SplineSet
328 818 m 0
 348 821 372 818 385 811 c 0
 390 809 395 804 395 801 c 0
 395 797 131 16 128 13 c 0
 119 1 76 -3 49 5 c 0
 39 8 30 13 30 18 c 0
 30 22 294 803 297 806 c 0
 301 811 313 816 328 818 c 0
EndSplineSet
EndChar

StartChar: zero
Encoding: 48 48 15
Width: 546
VWidth: 910
Flags: HW
LayerCount: 2
Fore
SplineSet
251 824 m 0
 283 827 312 822 320 812 c 0
 324 808 324 807 323 803 c 0
 318 796 306 790 287 788 c 0
 274 787 269 785 260 780 c 0
 236 765 214 737 198 700 c 0
 174 644 162 581 157 493 c 0
 155 466 155 353 157 327 c 0
 162 251 171 197 188 147 c 0
 200 112 212 89 229 67 c 0
 241 52 257 40 269 35 c 2
 273 33 l 1
 278 35 l 2
 290 40 305 52 317 67 c 0
 333 88 346 111 357 145 c 0
 382 217 391 299 390 427 c 0
 389 473 389 491 386 521 c 0
 377 608 351 678 316 708 c 0
 305 717 299 720 289 721 c 0
 267 724 253 730 253 739 c 0
 253 752 286 760 323 756 c 0
 383 751 423 723 450 668 c 0
 472 622 485 564 490 489 c 0
 493 447 492 347 488 301 c 0
 483 227 469 165 448 115 c 0
 429 69 402 36 367 16 c 0
 315 -13 231 -13 179 16 c 0
 138 40 109 80 88 142 c 0
 70 194 61 249 56 325 c 0
 54 351 54 468 56 495 c 0
 60 558 66 603 79 649 c 0
 86 677 99 710 110 728 c 0
 143 787 187 818 251 824 c 0
EndSplineSet
EndChar

StartChar: one
Encoding: 49 49 16
Width: 379
VWidth: 910
Flags: HW
LayerCount: 2
Fore
SplineSet
251 818 m 0
 276 822 307 816 317 806 c 2
 319 804 l 1
 319 418 l 1
 319 32 l 1
 325 30 l 2
 330 26 334 23 334 19 c 0
 334 11 320 4 299 1 c 0
 290 0 247 0 238 1 c 0
 217 4 203 11 203 19 c 0
 203 23 209 28 214 31 c 2
 218 32 l 1
 218 369 l 1
 218 705 l 1
 215 702 l 2
 202 690 114 611 111 609 c 0
 94 598 46 598 27 609 c 0
 21 612 18 615 18 619 c 0
 18 622 20 624 25 629 c 0
 29 633 74 675 127 722 c 0
 189 778 225 810 228 811 c 0
 233 815 241 816 251 818 c 0
EndSplineSet
EndChar

StartChar: two
Encoding: 50 50 17
Width: 546
VWidth: 910
Flags: HW
LayerCount: 2
Fore
SplineSet
240 824 m 0
 256 825 298 824 312 823 c 0
 379 814 426 788 454 744 c 0
 469 719 479 688 484 651 c 0
 485 642 485 632 485 611 c 0
 485 586 485 582 483 570 c 0
 477 530 464 493 440 454 c 0
 416 414 390 381 327 312 c 0
 262 243 241 217 217 182 c 0
 188 137 170 97 165 52 c 0
 164 47 163 41 163 39 c 2
 163 37 l 1
 308 37 l 2
 444 36 454 36 460 35 c 0
 468 32 475 31 479 28 c 0
 483 25 486 21 486 18 c 0
 486 16 483 12 479 9 c 0
 475 6 468 4 459 2 c 0
 452 1 440 1 273 1 c 2
 95 1 l 1
 86 3 l 2
 76 5 67 9 63 13 c 2
 61 16 l 1
 61 30 l 2
 64 92 88 150 136 215 c 0
 157 243 174 265 229 322 c 0
 268 366 289 388 308 413 c 0
 351 469 374 519 382 572 c 0
 384 584 384 588 384 611 c 0
 384 629 384 640 383 649 c 0
 375 715 349 757 309 778 c 0
 293 785 288 787 269 786 c 0
 245 786 230 784 214 776 c 0
 183 761 165 731 162 694 c 2
 162 684 l 1
 157 680 l 2
 150 673 134 669 112 669 c 0
 89 669 73 673 65 681 c 2
 61 684 l 1
 61 694 l 2
 64 735 84 769 119 791 c 0
 149 809 190 820 240 824 c 0
EndSplineSet
EndChar

StartChar: three
Encoding: 51 51 18
Width: 546
VWidth: 910
Flags: HW
LayerCount: 2
Fore
SplineSet
224 825 m 0
 244 827 293 825 316 822 c 0
 370 815 412 796 440 766 c 0
 475 730 492 678 492 608 c 0
 492 510 457 445 389 414 c 2
 380 410 l 1
 388 407 l 1
 456 377 492 310 492 212 c 0
 492 156 481 113 460 78 c 0
 432 32 383 6 316 -3 c 0
 287 -7 233 -8 208 -5 c 0
 160 0 113 14 89 30 c 0
 81 35 69 47 66 53 c 0
 63 58 61 67 61 72 c 0
 61 79 70 84 85 88 c 0
 91 90 95 90 112 90 c 0
 133 90 141 89 152 84 c 0
 159 80 161 77 162 71 c 0
 164 56 173 47 196 40 c 0
 220 32 238 30 269 32 c 0
 288 33 296 35 309 40 c 0
 341 54 364 82 378 122 c 0
 395 173 395 250 378 301 c 0
 364 341 341 369 309 383 c 0
 296 388 287 390 270 391 c 0
 241 393 223 401 223 411 c 0
 223 420 241 427 270 429 c 0
 287 430 296 432 309 437 c 0
 334 448 354 468 369 496 c 0
 379 517 385 540 389 568 c 0
 391 585 391 631 389 648 c 0
 380 715 353 760 309 779 c 0
 296 784 288 786 269 787 c 0
 238 789 220 787 196 779 c 0
 173 772 164 763 162 748 c 0
 161 742 159 739 152 735 c 0
 141 730 133 729 112 729 c 0
 95 729 91 729 85 731 c 0
 70 735 61 740 61 747 c 0
 61 752 63 761 66 766 c 0
 69 772 81 784 89 789 c 0
 116 807 168 821 224 825 c 0
EndSplineSet
EndChar

StartChar: four
Encoding: 52 52 19
Width: 500
VWidth: 910
Flags: HW
LayerCount: 2
Fore
SplineSet
177 818 m 0
 191 820 213 819 225 815 c 0
 235 812 242 807 243 802 c 0
 244 801 228 754 198 663 c 0
 173 587 154 524 153 523 c 0
 153 522 161 522 192 522 c 2
 230 522 l 1
 230 561 l 1
 230 599 l 1
 233 602 l 2
 250 618 312 618 329 602 c 2
 331 599 l 1
 331 561 l 1
 331 522 l 1
 380 522 l 2
 431 522 439 522 451 518 c 0
 462 515 471 509 471 504 c 0
 471 499 462 493 451 490 c 0
 439 486 431 485 380 485 c 2
 331 485 l 1
 331 250 l 1
 331 15 l 1
 329 13 l 2
 312 -4 248 -3 233 13 c 2
 230 16 l 1
 230 251 l 1
 230 485 l 1
 158 485 l 2
 87 485 79 485 67 489 c 0
 55 492 46 498 46 503 c 0
 46 505 137 787 143 802 c 0
 146 810 157 815 177 818 c 0
EndSplineSet
EndChar

StartChar: five
Encoding: 53 53 20
Width: 546
VWidth: 910
Flags: HW
LayerCount: 2
Fore
SplineSet
94 818 m 0
 99 819 139 819 277 819 c 0
 443 818 454 818 460 817 c 0
 474 813 480 810 484 805 c 0
 487 801 487 800 484 796 c 0
 480 791 474 788 460 784 c 0
 454 783 444 783 308 782 c 2
 162 782 l 1
 162 695 l 1
 162 608 l 1
 171 611 l 2
 183 614 208 616 224 618 c 0
 231 619 250 619 267 619 c 0
 294 619 298 619 310 617 c 0
 357 610 393 593 421 563 c 0
 460 522 484 457 490 368 c 0
 492 347 492 268 490 247 c 0
 485 178 470 126 445 83 c 0
 429 56 403 31 374 16 c 0
 358 8 334 1 310 -3 c 0
 298 -5 294 -5 268 -5 c 0
 236 -5 222 -4 197 -1 c 0
 167 4 141 11 120 21 c 0
 105 29 96 36 86 46 c 0
 73 59 66 72 62 88 c 0
 60 99 60 102 64 107 c 0
 69 113 82 117 100 119 c 0
 125 122 151 116 159 107 c 0
 161 104 162 102 162 97 c 0
 164 79 174 62 188 52 c 0
 207 38 228 33 261 33 c 2
 279 33 l 1
 286 35 l 2
 312 46 337 70 353 103 c 0
 373 142 384 186 389 248 c 0
 391 269 391 345 389 366 c 0
 384 428 373 473 353 512 c 0
 337 545 312 568 286 579 c 2
 279 583 l 1
 261 582 l 2
 228 582 207 577 188 563 c 0
 174 553 164 535 162 517 c 0
 162 512 161 510 159 507 c 0
 144 490 79 491 64 507 c 2
 61 511 l 1
 61 657 l 1
 61 803 l 1
 64 806 l 2
 69 811 79 815 94 818 c 0
EndSplineSet
EndChar

StartChar: six
Encoding: 54 54 21
Width: 546
VWidth: 910
Flags: HW
LayerCount: 2
Fore
SplineSet
221 824 m 0
 230 825 279 825 294 823 c 0
 340 818 375 810 404 795 c 0
 435 779 455 754 460 726 c 0
 463 711 461 708 451 703 c 0
 440 698 431 696 411 696 c 0
 390 696 381 698 370 703 c 0
 363 707 360 710 360 718 c 0
 358 741 343 763 321 774 c 0
 304 782 287 785 262 787 c 2
 251 787 l 1
 246 784 l 2
 235 776 225 763 215 743 c 0
 205 721 196 694 187 657 c 0
 182 639 175 605 175 601 c 0
 175 599 176 599 187 604 c 0
 239 625 307 625 359 604 c 0
 383 595 402 582 420 564 c 0
 432 551 439 542 448 527 c 0
 471 486 485 438 490 373 c 0
 492 347 492 267 490 241 c 0
 485 176 471 128 448 87 c 0
 439 72 432 63 420 50 c 0
 395 26 368 11 335 3 c 0
 267 -14 196 -3 147 33 c 0
 136 41 118 59 111 69 c 0
 90 97 74 137 65 183 c 0
 58 218 56 244 55 305 c 0
 53 482 66 606 99 706 c 0
 124 784 157 817 221 824 c 0
284 579 m 0
 276 583 272 583 267 581 c 0
 252 576 237 567 223 553 c 0
 208 538 198 523 188 499 c 0
 172 464 162 424 157 371 c 0
 155 345 155 269 157 243 c 0
 162 190 172 151 188 116 c 0
 198 92 208 77 223 62 c 0
 237 48 253 39 267 34 c 2
 273 32 l 1
 279 34 l 2
 293 39 309 48 323 62 c 0
 338 77 349 92 359 116 c 0
 375 151 384 190 389 243 c 0
 391 269 391 345 389 371 c 0
 384 434 371 481 349 520 c 0
 333 548 309 570 284 579 c 0
EndSplineSet
EndChar

StartChar: seven
Encoding: 55 55 22
Width: 485
VWidth: 910
Flags: HW
LayerCount: 2
Fore
SplineSet
63 818 m 0
 68 819 109 819 242 819 c 0
 424 819 422 820 436 815 c 0
 448 811 456 805 455 800 c 0
 454 798 403 621 341 406 c 0
 240 58 228 15 225 13 c 0
 212 -1 163 -5 138 7 c 0
 132 10 127 14 127 18 c 0
 127 19 177 191 238 399 c 0
 298 607 348 779 348 780 c 2
 348 782 l 1
 209 782 l 2
 93 782 70 782 63 783 c 0
 48 786 38 790 33 795 c 0
 29 800 29 801 33 806 c 0
 38 811 48 815 63 818 c 0
EndSplineSet
EndChar

StartChar: eight
Encoding: 56 56 23
Width: 546
VWidth: 910
Flags: HW
LayerCount: 2
Fore
SplineSet
252 824 m 0
 263 825 301 824 314 822 c 0
 363 816 403 799 430 774 c 0
 452 753 468 725 476 692 c 0
 486 654 488 603 481 561 c 0
 474 516 457 483 432 458 c 0
 419 445 408 437 391 428 c 0
 383 424 378 421 379 421 c 0
 381 421 400 412 409 407 c 0
 455 378 481 329 490 260 c 0
 492 241 492 194 490 175 c 0
 478 80 433 26 349 4 c 0
 302 -8 245 -8 198 4 c 0
 161 14 130 30 108 53 c 0
 80 82 62 122 56 175 c 0
 54 194 54 241 56 260 c 0
 65 329 92 378 138 407 c 0
 146 412 165 421 167 421 c 0
 168 421 163 424 155 428 c 0
 138 437 127 445 114 458 c 0
 101 471 93 482 86 497 c 0
 70 529 61 567 61 614 c 0
 61 685 80 739 117 774 c 0
 148 802 193 819 252 824 c 0
284 786 m 0
 264 790 240 782 219 766 c 0
 201 753 186 730 177 705 c 0
 158 654 158 573 177 522 c 0
 184 501 197 480 210 468 c 0
 233 448 261 437 284 441 c 0
 301 445 321 454 336 468 c 0
 349 480 363 501 370 522 c 0
 389 573 389 654 370 705 c 0
 361 730 345 753 327 766 c 0
 314 776 298 783 284 786 c 0
293 400 m 0
 288 402 282 402 276 403 c 0
 265 403 259 403 248 399 c 0
 211 386 183 355 168 309 c 0
 163 294 160 279 157 259 c 0
 155 241 155 195 157 177 c 0
 161 147 168 122 179 101 c 0
 195 66 220 45 253 35 c 0
 259 33 262 33 273 33 c 0
 284 33 287 33 293 35 c 0
 333 48 363 79 378 127 c 0
 387 154 390 178 390 218 c 0
 390 248 389 260 384 284 c 0
 381 299 374 320 367 335 c 0
 351 369 325 391 293 400 c 0
EndSplineSet
EndChar

StartChar: nine
Encoding: 57 57 24
Width: 546
VWidth: 910
Flags: HW
LayerCount: 2
Fore
SplineSet
250 824 m 0
 296 829 345 818 380 798 c 0
 395 790 407 781 420 769 c 0
 432 756 439 747 448 732 c 0
 471 691 485 643 490 579 c 0
 493 545 492 430 489 368 c 0
 485 295 477 229 464 175 c 0
 440 75 417 29 375 9 c 0
 351 -3 329 -6 288 -5 c 0
 224 -3 179 6 142 25 c 0
 111 41 91 65 86 93 c 0
 83 108 86 112 96 117 c 0
 107 122 116 123 137 123 c 0
 157 123 166 122 177 117 c 0
 184 113 187 109 187 101 c 0
 189 78 203 57 225 46 c 0
 242 38 259 34 285 32 c 2
 296 32 l 1
 301 35 l 2
 311 43 321 56 331 77 c 0
 341 98 351 125 360 162 c 0
 365 180 371 214 371 218 c 0
 371 220 371 220 360 215 c 0
 308 194 240 194 188 215 c 0
 164 224 144 237 127 255 c 0
 114 268 107 277 98 292 c 0
 75 333 61 381 56 446 c 0
 54 472 54 552 56 578 c 0
 60 621 66 651 77 684 c 0
 85 708 98 733 111 750 c 0
 118 760 136 778 147 786 c 0
 175 807 210 820 250 824 c 0
284 784 m 0
 276 788 272 788 267 786 c 0
 252 781 237 771 223 757 c 0
 208 742 198 728 188 704 c 0
 172 669 162 629 157 576 c 0
 155 550 155 474 157 448 c 0
 162 395 172 355 188 320 c 0
 198 296 208 282 223 267 c 0
 237 253 253 243 267 238 c 2
 273 237 l 1
 279 238 l 2
 293 243 309 253 323 267 c 0
 338 282 349 296 359 320 c 0
 375 355 384 395 389 448 c 0
 391 474 391 550 389 576 c 0
 384 639 371 686 349 725 c 0
 333 753 309 775 284 784 c 0
EndSplineSet
EndChar

StartChar: colon
Encoding: 58 58 25
Width: 182
VWidth: 910
Flags: HW
LayerCount: 2
Fore
SplineSet
73 613 m 0
 104 617 139 610 148 599 c 0
 153 594 153 590 148 585 c 0
 136 570 90 565 56 574 c 0
 40 578 30 586 30 593 c 0
 30 597 36 601 42 605 c 0
 49 609 63 612 73 613 c 0
73 44 m 0
 104 48 139 40 148 29 c 0
 153 24 153 20 148 15 c 0
 136 0 90 -4 56 5 c 0
 40 9 30 16 30 22 c 0
 30 27 36 31 42 35 c 0
 49 39 63 43 73 44 c 0
EndSplineSet
EndChar

StartChar: semicolon
Encoding: 59 59 26
Width: 182
VWidth: 910
Flags: HW
LayerCount: 2
Fore
SplineSet
73 617 m 0
 104 621 139 614 148 603 c 0
 153 598 153 594 148 589 c 0
 136 574 90 569 56 578 c 0
 40 582 30 589 30 596 c 0
 30 600 36 605 42 609 c 0
 49 613 63 616 73 617 c 0
74 36 m 0
 99 40 129 35 139 25 c 2
 142 22 l 1
 142 8 l 2
 140 -29 131 -64 115 -96 c 0
 109 -109 107 -111 100 -114 c 0
 90 -119 82 -120 66 -121 c 0
 44 -121 28 -118 17 -112 c 0
 13 -110 10 -106 10 -103 c 0
 10 -102 12 -96 15 -91 c 0
 30 -59 39 -27 41 9 c 0
 41 21 41 21 44 25 c 0
 49 30 59 33 74 36 c 0
EndSplineSet
EndChar

StartChar: less
Encoding: 60 60 27
Width: 607
VWidth: 910
Flags: HW
LayerCount: 2
Fore
SplineSet
510 613 m 0
 520 614 535 614 544 613 c 0
 559 610 569 607 574 602 c 0
 578 597 578 595 574 591 c 0
 572 589 479 528 355 447 c 0
 237 371 139 307 140 307 c 2
 140 307 238 243 356 167 c 0
 479 87 571 27 573 25 c 0
 578 20 578 18 574 13 c 0
 561 -1 514 -5 489 6 c 0
 482 9 38 297 34 301 c 0
 29 306 29 308 34 313 c 0
 38 317 482 605 489 608 c 0
 494 610 504 612 510 613 c 0
EndSplineSet
EndChar

StartChar: equal
Encoding: 61 61 28
Width: 607
VWidth: 910
Flags: HW
LayerCount: 2
Fore
SplineSet
63 428 m 0
 68 429 121 429 303 429 c 0
 551 429 543 429 558 424 c 0
 569 421 577 416 577 411 c 0
 577 406 569 399 558 396 c 0
 543 391 551 391 304 391 c 0
 106 391 70 391 63 392 c 0
 48 395 38 399 33 404 c 0
 29 409 29 411 33 416 c 0
 38 421 48 425 63 428 c 0
63 223 m 0
 68 224 121 224 303 224 c 0
 551 224 543 224 558 219 c 0
 569 216 577 211 577 206 c 0
 577 201 569 194 558 191 c 0
 543 186 551 187 304 187 c 0
 106 187 70 187 63 188 c 0
 48 191 38 194 33 199 c 0
 29 204 29 206 33 211 c 0
 38 216 48 220 63 223 c 0
EndSplineSet
EndChar

StartChar: greater
Encoding: 62 62 29
Width: 607
VWidth: 910
Flags: HW
LayerCount: 2
Fore
SplineSet
63 613 m 0
 80 616 105 613 119 608 c 0
 125 605 569 317 573 313 c 0
 576 311 577 309 577 308 c 0
 577 306 576 303 573 301 c 0
 569 297 125 9 119 6 c 0
 94 -5 46 -1 33 13 c 0
 29 18 29 20 34 25 c 0
 36 27 128 87 252 167 c 0
 369 243 467 307 467 307 c 2
 468 307 370 371 252 447 c 0
 128 528 35 589 33 591 c 0
 29 595 29 597 33 602 c 0
 38 607 48 610 63 613 c 0
EndSplineSet
EndChar

StartChar: question
Encoding: 63 63 30
Width: 485
VWidth: 910
Flags: HW
LayerCount: 2
Fore
SplineSet
222 824 m 0
 231 825 268 824 279 823 c 0
 331 816 373 797 400 768 c 0
 430 736 447 693 453 634 c 0
 455 619 455 566 453 551 c 0
 446 479 422 429 377 396 c 0
 367 390 347 380 335 375 c 0
 325 371 305 366 298 364 c 2
 293 364 l 1
 293 224 l 1
 293 84 l 1
 289 79 l 2
 281 72 265 68 243 68 c 0
 220 68 204 72 196 79 c 2
 192 84 l 1
 192 232 l 1
 192 381 l 1
 195 385 l 2
 200 392 216 397 240 398 c 0
 257 399 260 400 274 406 c 0
 297 418 316 438 330 466 c 0
 346 499 354 540 354 593 c 0
 354 662 339 714 310 750 c 0
 295 767 275 781 255 786 c 0
 245 788 240 788 231 786 c 0
 210 781 190 767 175 750 c 0
 154 724 140 688 135 646 c 0
 133 631 131 611 131 599 c 0
 131 591 131 590 128 587 c 0
 125 583 117 579 107 577 c 0
 95 573 66 573 54 577 c 0
 44 579 36 583 32 587 c 2
 30 591 l 1
 30 609 l 2
 31 637 34 658 39 680 c 0
 50 725 72 761 102 784 c 0
 134 808 169 819 222 824 c 0
227 36 m 0
 236 37 260 37 269 35 c 0
 302 28 302 10 269 3 c 0
 256 0 230 0 217 3 c 0
 202 7 192 12 192 18 c 0
 192 26 205 33 227 36 c 0
EndSplineSet
EndChar

StartChar: at
Encoding: 64 64 31
Width: 728
VWidth: 910
Flags: HW
LayerCount: 2
Fore
SplineSet
335 728 m 0
 349 729 376 729 391 728 c 0
 489 721 566 681 611 615 c 0
 646 563 665 504 672 424 c 0
 674 399 675 357 673 344 c 0
 669 306 656 274 633 250 c 0
 615 233 596 223 570 218 c 0
 557 216 527 216 515 219 c 0
 510 220 505 221 505 221 c 1
 505 221 504 215 503 209 c 0
 489 143 449 109 378 104 c 0
 337 100 303 110 279 132 c 0
 261 149 250 168 239 201 c 0
 224 246 219 298 220 379 c 0
 221 415 222 427 225 451 c 0
 230 500 243 544 261 571 c 0
 268 581 284 598 292 603 c 0
 315 618 344 624 378 621 c 0
 448 616 488 582 502 519 c 0
 507 495 507 497 508 386 c 2
 508 283 l 1
 522 283 l 2
 529 282 538 281 542 281 c 0
 547 280 550 279 550 279 c 2
 552 280 559 295 563 305 c 0
 571 326 574 345 573 380 c 0
 571 463 557 524 530 577 c 0
 523 592 509 612 499 624 c 0
 472 657 431 681 390 689 c 0
 382 691 377 691 364 691 c 0
 351 691 346 691 338 689 c 0
 311 684 283 671 259 653 c 0
 241 639 228 625 213 603 c 0
 186 561 168 512 161 449 c 0
 156 418 157 403 157 360 c 0
 157 316 157 301 162 268 c 0
 177 152 231 70 309 41 c 0
 327 34 335 33 360 32 c 0
 384 31 392 29 401 25 c 0
 411 20 416 15 414 10 c 0
 409 3 398 -2 379 -5 c 0
 368 -7 325 -6 310 -4 c 0
 249 4 200 25 160 60 c 0
 117 96 86 151 70 218 c 0
 64 241 59 274 56 307 c 0
 54 326 54 398 56 418 c 0
 62 503 82 562 117 615 c 0
 162 681 239 721 335 728 c 0
377 586 m 0
 369 591 368 591 363 588 c 0
 346 576 332 556 321 525 c 0
 306 481 301 438 301 362 c 0
 301 295 306 253 317 214 c 0
 328 177 344 149 362 137 c 2
 368 134 l 1
 375 137 l 2
 390 144 401 157 410 174 c 0
 418 189 421 204 425 226 c 0
 426 237 427 246 427 362 c 0
 427 493 427 492 422 513 c 0
 415 548 399 575 377 586 c 0
EndSplineSet
EndChar

StartChar: A
Encoding: 65 65 32
Width: 576
VWidth: 910
Flags: HW
LayerCount: 2
Fore
SplineSet
235 818 m 0
 246 819 329 819 341 818 c 0
 356 815 365 811 370 806 c 0
 373 803 375 796 452 412 c 0
 495 196 531 19 531 18 c 0
 531 14 526 10 520 7 c 0
 495 -5 445 -1 432 13 c 0
 430 16 429 22 398 179 c 2
 365 342 l 1
 288 342 l 1
 211 342 l 1
 178 179 l 2
 147 22 146 16 144 13 c 0
 131 -1 81 -5 56 7 c 0
 50 10 46 14 46 18 c 0
 46 19 81 196 124 412 c 0
 201 796 203 803 206 806 c 0
 211 811 220 815 235 818 c 0
357 380 m 0
 357 381 341 458 322 553 c 2
 288 725 l 1
 254 553 l 2
 235 458 219 380 219 380 c 2
 219 379 251 380 289 380 c 0
 343 380 357 379 357 380 c 0
EndSplineSet
EndChar

StartChar: B
Encoding: 66 66 33
Width: 546
VWidth: 910
Flags: HW
LayerCount: 2
Fore
SplineSet
79 818 m 0
 86 819 147 818 167 817 c 0
 253 812 318 796 374 768 c 0
 383 763 395 758 400 754 c 0
 455 719 486 663 486 604 c 0
 486 548 466 497 430 462 c 0
 409 442 381 425 349 413 c 0
 344 412 340 411 340 411 c 2
 339 411 342 410 345 409 c 0
 363 403 391 390 407 379 c 0
 453 349 479 306 489 249 c 0
 491 239 491 234 491 217 c 0
 491 197 491 194 489 184 c 0
 482 150 467 122 442 96 c 0
 425 79 406 66 380 52 c 0
 325 25 261 9 181 3 c 0
 145 0 94 -1 80 1 c 0
 59 4 46 11 46 19 c 0
 46 23 51 28 56 31 c 2
 61 32 l 1
 61 214 l 1
 61 397 l 1
 56 398 l 2
 51 401 46 406 46 410 c 0
 46 415 51 419 56 422 c 2
 61 423 l 1
 61 605 l 1
 61 787 l 1
 56 788 l 2
 51 791 46 796 46 800 c 0
 46 808 58 815 79 818 c 0
201 775 m 0
 193 777 181 778 175 778 c 2
 162 780 l 1
 162 604 l 1
 162 429 l 1
 186 429 l 2
 213 429 230 429 246 432 c 0
 291 439 329 462 352 495 c 0
 365 513 375 539 380 563 c 0
 386 595 386 625 378 650 c 0
 369 678 352 704 330 723 c 0
 299 748 253 767 201 775 c 0
235 390 m 0
 230 391 212 390 194 391 c 2
 162 391 l 1
 162 216 l 1
 162 39 l 1
 165 40 l 2
 167 40 173 40 179 41 c 0
 241 46 302 69 337 99 c 0
 362 121 382 154 388 188 c 0
 391 203 391 230 388 248 c 0
 383 275 374 298 360 319 c 0
 334 358 291 384 235 390 c 0
EndSplineSet
EndChar

StartChar: C
Encoding: 67 67 34
Width: 546
VWidth: 910
Flags: HW
LayerCount: 2
Fore
SplineSet
256 824 m 0
 258 825 267 825 277 825 c 0
 367 826 439 804 475 765 c 0
 493 746 504 719 506 694 c 2
 506 684 l 1
 502 681 l 2
 494 673 478 669 456 669 c 0
 433 669 417 673 410 680 c 2
 405 684 l 1
 405 694 l 2
 403 717 393 739 378 755 c 0
 367 765 353 774 337 779 c 0
 322 784 314 785 294 786 c 0
 275 788 273 787 260 780 c 0
 242 768 222 746 208 720 c 0
 187 682 170 620 163 559 c 0
 158 513 157 485 157 410 c 0
 157 335 158 306 163 260 c 0
 172 187 192 122 218 83 c 0
 231 64 245 48 260 39 c 0
 273 32 275 31 294 33 c 0
 314 34 322 35 337 40 c 0
 353 45 367 54 378 64 c 0
 393 80 403 103 405 126 c 2
 405 136 l 1
 410 139 l 2
 417 146 433 150 456 150 c 0
 478 150 494 146 502 138 c 2
 506 135 l 1
 506 125 l 2
 504 106 498 84 486 68 c 0
 461 31 409 6 336 -2 c 0
 305 -6 261 -7 240 -4 c 0
 194 3 160 23 132 58 c 0
 114 80 100 106 88 142 c 0
 70 194 61 249 56 325 c 0
 54 351 54 468 56 495 c 0
 61 584 74 649 99 705 c 0
 120 754 151 790 189 807 c 0
 208 816 229 821 256 824 c 0
EndSplineSet
EndChar

StartChar: D
Encoding: 68 68 35
Width: 530
VWidth: 910
Flags: HW
LayerCount: 2
Fore
SplineSet
79 818 m 0
 100 821 153 817 189 811 c 0
 313 790 399 730 447 632 c 0
 470 586 483 533 489 467 c 0
 491 443 491 376 489 352 c 0
 483 286 470 234 447 188 c 0
 399 89 313 29 189 8 c 0
 153 2 101 -2 80 1 c 0
 59 4 46 11 46 19 c 0
 46 23 51 28 56 31 c 2
 61 32 l 1
 61 410 l 1
 61 787 l 1
 56 788 l 2
 51 791 46 796 46 800 c 0
 46 808 59 815 79 818 c 0
173 772 m 0
 168 773 165 774 164 775 c 0
 162 775 162 758 162 410 c 0
 162 62 162 45 164 45 c 0
 165 46 168 46 173 47 c 0
 202 54 235 70 260 88 c 0
 326 135 369 217 384 323 c 0
 388 353 389 370 389 410 c 0
 389 450 388 466 384 496 c 0
 369 612 319 697 242 743 c 0
 220 756 196 767 173 772 c 0
EndSplineSet
EndChar

StartChar: E
Encoding: 69 69 36
Width: 530
VWidth: 910
Flags: HW
LayerCount: 2
Fore
SplineSet
79 818 m 0
 87 819 443 819 451 818 c 0
 466 816 477 811 482 806 c 0
 491 797 478 787 451 783 c 0
 446 782 388 782 303 782 c 2
 162 782 l 1
 162 605 l 1
 162 429 l 1
 288 429 l 2
 421 429 422 429 436 424 c 0
 447 421 455 416 455 411 c 0
 455 406 447 399 436 396 c 0
 422 391 421 391 288 391 c 2
 162 391 l 1
 162 215 l 1
 162 37 l 1
 303 37 l 2
 388 37 446 37 451 36 c 0
 466 34 477 30 482 25 c 0
 491 16 478 5 451 1 c 0
 442 0 89 0 80 1 c 0
 59 4 46 11 46 19 c 0
 46 23 51 28 56 31 c 2
 61 32 l 1
 61 214 l 1
 61 397 l 1
 56 398 l 2
 51 401 46 406 46 410 c 0
 46 415 51 419 56 422 c 2
 61 423 l 1
 61 605 l 1
 61 787 l 1
 56 788 l 2
 51 791 46 796 46 800 c 0
 46 808 59 815 79 818 c 0
EndSplineSet
EndChar

StartChar: F
Encoding: 70 70 37
Width: 530
VWidth: 910
Flags: HW
LayerCount: 2
Fore
SplineSet
79 818 m 0
 87 819 443 819 451 818 c 0
 466 816 477 811 482 806 c 0
 491 797 478 787 451 783 c 0
 446 782 388 782 303 782 c 2
 162 782 l 1
 162 605 l 1
 162 429 l 1
 288 429 l 2
 421 429 422 429 436 424 c 0
 447 421 455 416 455 411 c 0
 455 406 447 399 436 396 c 0
 422 391 421 391 288 391 c 2
 162 391 l 1
 162 204 l 1
 162 15 l 1
 159 13 l 2
 142 -4 79 -3 64 13 c 2
 61 16 l 1
 61 207 l 1
 61 397 l 1
 56 398 l 2
 51 401 46 406 46 410 c 0
 46 415 51 419 56 422 c 2
 61 423 l 1
 61 605 l 1
 61 787 l 1
 56 788 l 2
 51 791 46 796 46 800 c 0
 46 808 59 815 79 818 c 0
EndSplineSet
EndChar

StartChar: G
Encoding: 71 71 38
Width: 546
VWidth: 910
Flags: HW
LayerCount: 2
Fore
SplineSet
256 824 m 0
 258 825 267 825 277 825 c 0
 367 826 439 804 475 765 c 0
 493 746 504 719 506 694 c 2
 506 684 l 1
 502 681 l 2
 494 673 478 669 456 669 c 0
 433 669 417 673 410 680 c 2
 405 684 l 1
 405 694 l 2
 403 717 393 739 378 755 c 0
 367 765 353 774 337 779 c 0
 322 784 314 785 294 786 c 0
 275 788 273 787 260 780 c 0
 242 768 222 746 208 720 c 0
 187 682 170 620 163 559 c 0
 158 513 157 485 157 410 c 0
 157 335 158 306 163 260 c 0
 172 187 192 122 218 83 c 0
 231 64 245 48 260 39 c 0
 273 32 275 31 294 33 c 0
 314 34 322 35 337 40 c 0
 372 52 392 73 402 108 c 2
 404 117 l 1
 405 254 l 1
 405 391 l 1
 360 391 l 2
 314 391 304 392 292 396 c 0
 281 399 273 405 273 410 c 0
 273 415 281 421 292 424 c 0
 305 429 312 429 390 429 c 0
 433 429 467 429 471 428 c 0
 486 426 497 421 503 416 c 2
 506 413 l 1
 506 264 l 1
 506 116 l 1
 502 105 l 2
 499 92 493 78 486 68 c 0
 461 31 409 6 336 -2 c 0
 305 -6 261 -7 240 -4 c 0
 194 3 160 23 132 58 c 0
 114 80 100 106 88 142 c 0
 70 194 61 249 56 325 c 0
 54 351 54 468 56 495 c 0
 61 584 74 649 99 705 c 0
 120 754 151 790 189 807 c 0
 208 816 229 821 256 824 c 0
EndSplineSet
EndChar

StartChar: H
Encoding: 72 72 39
Width: 546
VWidth: 910
Flags: HW
LayerCount: 2
Fore
SplineSet
94 818 m 0
 119 822 149 816 159 806 c 2
 162 804 l 1
 162 625 l 1
 162 448 l 1
 274 448 l 1
 385 448 l 1
 385 625 l 1
 385 803 l 1
 388 806 l 2
 403 822 466 823 483 806 c 2
 486 804 l 1
 486 624 l 1
 486 442 l 1
 492 441 l 2
 497 437 501 434 501 429 c 0
 501 425 497 422 492 418 c 2
 486 416 l 1
 486 216 l 1
 486 15 l 1
 483 13 l 2
 466 -4 403 -3 388 13 c 2
 385 16 l 1
 385 214 l 1
 385 411 l 1
 274 411 l 1
 162 411 l 1
 162 213 l 1
 162 15 l 1
 159 13 l 2
 142 -4 79 -3 64 13 c 2
 61 16 l 1
 61 216 l 1
 61 416 l 1
 56 417 l 2
 51 420 46 425 46 430 c 0
 46 434 51 438 56 441 c 2
 61 442 l 1
 61 623 l 1
 61 803 l 1
 64 806 l 2
 69 811 79 815 94 818 c 0
EndSplineSet
EndChar

StartChar: I
Encoding: 73 73 40
Width: 334
VWidth: 910
Flags: HW
LayerCount: 2
Fore
SplineSet
134 818 m 0
 144 819 189 819 200 818 c 0
 215 815 224 811 229 806 c 0
 234 801 232 794 222 789 c 2
 218 787 l 1
 218 410 l 1
 218 32 l 1
 222 30 l 2
 236 24 236 14 223 8 c 0
 211 2 198 0 167 0 c 0
 135 0 123 2 111 8 c 0
 98 14 98 24 112 30 c 2
 117 32 l 1
 117 410 l 1
 117 787 l 1
 112 789 l 2
 109 790 107 793 105 795 c 0
 96 804 108 813 134 818 c 0
EndSplineSet
EndChar

StartChar: J
Encoding: 74 74 41
Width: 455
VWidth: 910
Flags: HW
LayerCount: 2
Fore
SplineSet
312 818 m 0
 320 819 367 819 375 818 c 0
 396 815 410 808 410 801 c 0
 410 796 405 793 400 789 c 2
 395 787 l 1
 395 490 l 2
 395 309 395 187 394 179 c 0
 393 160 390 141 386 126 c 0
 368 54 324 15 249 3 c 0
 238 1 232 1 213 1 c 0
 186 1 173 2 151 8 c 0
 91 23 55 61 39 126 c 0
 34 148 30 177 30 203 c 0
 30 213 30 213 33 217 c 0
 48 234 113 234 128 217 c 0
 131 213 131 213 131 204 c 0
 131 189 133 170 135 155 c 0
 143 95 171 52 207 39 c 2
 212 37 l 1
 218 39 l 2
 230 43 245 53 254 64 c 0
 277 90 289 129 293 181 c 0
 294 189 294 311 294 491 c 2
 294 787 l 1
 289 788 l 2
 284 791 279 796 279 800 c 0
 279 808 292 815 312 818 c 0
EndSplineSet
EndChar

StartChar: K
Encoding: 75 75 42
Width: 530
VWidth: 910
Flags: HW
LayerCount: 2
Fore
SplineSet
94 818 m 0
 119 822 149 816 159 806 c 2
 162 804 l 1
 162 670 l 1
 163 536 l 1
 274 671 l 2
 336 745 387 806 389 807 c 0
 405 823 466 822 482 806 c 0
 486 802 486 799 482 794 c 0
 480 792 434 735 378 668 c 0
 322 601 277 545 277 545 c 2
 277 544 324 426 381 282 c 0
 437 138 485 19 485 18 c 0
 485 14 480 10 474 7 c 0
 449 -5 400 -1 387 13 c 0
 385 16 361 76 296 238 c 2
 207 461 l 1
 207 461 197 449 184 434 c 2
 162 408 l 1
 162 212 l 1
 162 15 l 1
 159 13 l 2
 142 -4 79 -3 64 13 c 2
 61 16 l 1
 61 410 l 1
 61 803 l 1
 64 806 l 2
 69 811 79 815 94 818 c 0
EndSplineSet
EndChar

StartChar: L
Encoding: 76 76 43
Width: 516
VWidth: 910
Flags: HW
LayerCount: 2
Fore
SplineSet
94 818 m 0
 119 822 149 816 159 806 c 2
 162 804 l 1
 162 421 l 1
 162 37 l 1
 303 37 l 2
 452 37 453 38 467 33 c 0
 478 30 486 23 486 18 c 0
 486 13 478 8 467 5 c 0
 453 0 455 0 266 0 c 0
 157 0 85 0 80 1 c 0
 59 4 46 11 46 19 c 0
 46 23 51 28 56 31 c 2
 61 32 l 1
 61 418 l 1
 61 803 l 1
 64 806 l 2
 69 811 79 815 94 818 c 0
EndSplineSet
EndChar

StartChar: M
Encoding: 77 77 44
Width: 789
VWidth: 910
Flags: HW
LayerCount: 2
Fore
SplineSet
94 818 m 0
 103 819 127 819 136 817 c 0
 149 814 157 811 160 806 c 0
 161 804 214 661 279 487 c 0
 343 312 395 170 395 170 c 1
 395 170 447 312 512 487 c 0
 603 735 629 803 631 806 c 0
 646 822 709 823 726 806 c 2
 729 804 l 1
 729 410 l 1
 729 15 l 1
 726 13 l 2
 709 -4 647 -3 632 13 c 2
 629 15 l 1
 628 269 l 1
 628 523 l 1
 536 275 l 2
 460 69 444 27 442 24 c 0
 431 13 393 8 367 15 c 0
 359 17 352 21 348 24 c 0
 346 27 330 69 254 275 c 2
 163 523 l 1
 162 269 l 1
 162 15 l 1
 159 13 l 2
 142 -4 79 -3 64 13 c 2
 61 16 l 1
 61 410 l 1
 61 803 l 1
 64 806 l 2
 69 811 79 815 94 818 c 0
EndSplineSet
EndChar

StartChar: N
Encoding: 78 78 45
Width: 546
VWidth: 910
Flags: HW
LayerCount: 2
Fore
SplineSet
94 818 m 0
 103 819 127 819 136 817 c 0
 149 814 157 811 160 806 c 0
 161 804 212 681 273 534 c 2
 385 265 l 1
 385 534 l 1
 386 804 l 1
 389 806 l 2
 404 822 466 823 483 806 c 2
 486 804 l 1
 486 410 l 1
 486 15 l 1
 483 13 l 2
 466 -4 403 -3 388 13 c 0
 386 16 353 94 274 285 c 2
 163 554 l 1
 162 285 l 1
 162 15 l 1
 159 13 l 2
 142 -4 79 -3 64 13 c 2
 61 16 l 1
 61 410 l 1
 61 803 l 1
 64 806 l 2
 69 811 79 815 94 818 c 0
EndSplineSet
EndChar

StartChar: O
Encoding: 79 79 46
Width: 698
VWidth: 910
Flags: HW
LayerCount: 2
Fore
SplineSet
321 824 m 0
 336 825 377 824 393 822 c 0
 454 814 502 794 544 759 c 0
 603 708 644 618 654 505 c 0
 658 471 657 459 657 410 c 0
 657 361 658 348 654 315 c 0
 649 260 636 208 619 167 c 0
 586 91 541 44 471 16 c 0
 448 7 422 1 392 -3 c 0
 370 -6 328 -6 306 -3 c 0
 243 5 196 25 154 60 c 0
 95 111 55 201 45 315 c 0
 41 348 41 361 41 410 c 0
 41 459 41 471 45 505 c 0
 51 577 69 640 98 690 c 0
 111 712 122 728 137 743 c 0
 183 790 245 818 321 824 c 0
367 786 m 0
 342 791 318 786 289 771 c 0
 251 753 221 724 198 684 c 0
 170 635 152 574 146 503 c 0
 142 469 142 457 142 410 c 0
 142 363 142 350 146 317 c 0
 156 208 193 121 248 75 c 0
 280 49 319 32 350 32 c 0
 367 32 389 37 411 48 c 0
 448 66 477 95 500 135 c 0
 528 184 547 245 553 317 c 0
 557 350 556 363 556 410 c 0
 556 457 557 469 553 503 c 0
 543 611 506 699 451 745 c 0
 426 767 394 781 367 786 c 0
EndSplineSet
EndChar

StartChar: P
Encoding: 80 80 47
Width: 530
VWidth: 910
Flags: HW
LayerCount: 2
Fore
SplineSet
79 818 m 0
 86 819 148 818 167 817 c 0
 257 811 324 795 380 766 c 0
 423 744 453 715 472 679 c 0
 513 599 484 506 400 455 c 0
 345 420 264 398 173 393 c 1
 162 393 l 1
 162 204 l 1
 162 15 l 1
 159 13 l 2
 142 -4 79 -3 64 13 c 2
 61 16 l 1
 61 207 l 1
 61 397 l 1
 56 398 l 2
 51 401 46 406 46 410 c 0
 46 415 51 419 56 422 c 2
 61 423 l 1
 61 605 l 1
 61 787 l 1
 56 788 l 2
 51 791 46 796 46 800 c 0
 46 808 58 815 79 818 c 0
178 778 m 0
 172 779 167 779 165 779 c 2
 162 780 l 1
 162 605 l 1
 162 431 l 1
 165 431 l 2
 167 431 172 431 178 432 c 0
 233 437 285 455 320 479 c 0
 369 513 396 569 389 624 c 0
 383 667 357 707 320 732 c 0
 285 756 233 773 178 778 c 0
EndSplineSet
EndChar

StartChar: Q
Encoding: 81 81 48
Width: 698
VWidth: 910
Flags: HW
LayerCount: 2
Fore
SplineSet
321 824 m 0
 336 825 377 824 393 822 c 0
 454 814 502 794 544 759 c 0
 603 708 644 618 654 505 c 0
 658 471 657 459 657 410 c 0
 657 361 658 348 654 315 c 0
 647 234 626 167 591 114 c 1
 585 106 l 1
 609 68 l 2
 638 21 638 20 638 17 c 0
 634 6 610 -1 582 0 c 0
 562 1 545 7 540 13 c 0
 538 14 534 21 530 28 c 0
 525 35 521 42 521 42 c 2
 520 42 517 40 512 37 c 0
 479 16 439 3 392 -3 c 0
 370 -6 328 -6 306 -3 c 0
 243 5 196 25 154 60 c 0
 95 111 55 201 45 315 c 0
 41 348 41 361 41 410 c 0
 41 459 41 471 45 505 c 0
 51 577 69 640 98 690 c 0
 111 712 122 728 137 743 c 0
 183 790 245 818 321 824 c 0
367 786 m 0
 342 791 318 786 289 771 c 0
 251 753 221 724 198 684 c 0
 170 635 152 574 146 503 c 0
 142 469 142 457 142 410 c 0
 142 363 142 350 146 317 c 0
 156 208 193 121 248 75 c 0
 280 49 319 32 350 32 c 0
 367 32 389 37 411 48 c 0
 436 60 457 77 474 98 c 2
 482 106 l 1
 479 111 l 2
 478 113 466 133 453 154 c 0
 437 180 430 193 430 195 c 0
 430 202 443 209 463 212 c 0
 476 214 497 213 508 210 c 0
 517 207 521 206 526 202 c 0
 528 201 529 200 529 200 c 2
 530 201 537 225 540 236 c 0
 545 260 551 290 553 317 c 0
 557 350 556 363 556 410 c 0
 556 457 557 469 553 503 c 0
 543 611 506 699 451 745 c 0
 426 767 394 781 367 786 c 0
EndSplineSet
EndChar

StartChar: R
Encoding: 82 82 49
Width: 546
VWidth: 910
Flags: HW
LayerCount: 2
Fore
SplineSet
79 818 m 0
 87 819 152 818 177 817 c 0
 265 811 334 794 391 767 c 0
 417 753 436 741 454 723 c 0
 480 697 497 669 503 634 c 0
 506 619 506 592 503 577 c 0
 498 552 487 529 471 507 c 0
 463 497 445 478 433 470 c 0
 397 442 337 418 274 405 c 0
 260 403 260 403 261 401 c 0
 262 399 318 314 384 210 c 0
 470 77 506 20 506 18 c 0
 506 5 470 -4 438 1 c 0
 423 4 413 8 408 13 c 0
 407 15 350 101 284 205 c 2
 163 393 l 1
 162 205 l 1
 162 15 l 1
 159 13 l 2
 142 -4 79 -3 64 13 c 2
 61 16 l 1
 61 207 l 1
 61 397 l 1
 56 398 l 2
 51 401 46 406 46 410 c 0
 46 415 51 419 56 422 c 2
 61 423 l 1
 61 605 l 1
 61 787 l 1
 56 788 l 2
 51 791 46 796 46 800 c 0
 46 808 58 815 79 818 c 0
188 777 m 0
 181 778 172 779 168 780 c 2
 162 780 l 1
 162 605 l 1
 162 431 l 1
 168 431 l 1
 223 436 261 445 297 460 c 0
 318 469 333 478 348 490 c 0
 376 513 395 544 402 579 c 0
 405 593 405 618 402 632 c 0
 392 679 363 717 317 742 c 0
 282 760 236 772 188 777 c 0
EndSplineSet
EndChar

StartChar: S
Encoding: 83 83 50
Width: 546
VWidth: 910
Flags: HW
LayerCount: 2
Fore
SplineSet
251 824 m 0
 261 825 308 824 321 823 c 0
 381 816 424 799 452 772 c 0
 472 751 484 724 486 694 c 2
 486 684 l 1
 482 681 l 2
 474 673 458 669 436 669 c 0
 413 669 397 673 389 680 c 0
 385 684 385 684 385 689 c 0
 385 702 381 718 376 732 c 0
 360 769 320 789 271 787 c 0
 249 786 227 777 209 762 c 0
 188 744 171 713 163 678 c 0
 158 657 155 626 156 604 c 0
 157 582 160 567 170 548 c 0
 178 530 191 514 208 497 c 0
 232 473 257 454 312 421 c 0
 371 386 397 368 425 340 c 0
 447 318 459 301 470 279 c 0
 477 265 480 254 483 239 c 0
 485 230 485 227 485 205 c 0
 485 189 485 176 484 168 c 0
 471 64 417 11 312 -4 c 0
 295 -6 246 -6 226 -4 c 0
 163 3 119 21 92 50 c 0
 74 70 63 97 61 125 c 2
 61 135 l 1
 65 138 l 2
 73 146 89 150 112 150 c 0
 134 150 150 146 157 139 c 2
 162 136 l 1
 162 126 l 2
 165 89 183 59 214 44 c 0
 230 36 245 33 269 33 c 0
 288 32 293 34 309 41 c 0
 332 53 349 71 363 98 c 0
 378 127 384 161 384 205 c 0
 384 222 384 228 383 236 c 0
 377 269 359 298 330 327 c 0
 305 352 281 369 224 403 c 0
 167 438 139 457 113 484 c 0
 92 505 81 520 70 542 c 0
 56 569 53 594 56 634 c 0
 59 677 68 713 86 741 c 0
 117 790 171 818 251 824 c 0
EndSplineSet
EndChar

StartChar: T
Encoding: 84 84 51
Width: 516
VWidth: 910
Flags: HW
LayerCount: 2
Fore
SplineSet
79 818 m 0
 87 819 428 819 436 818 c 0
 463 814 477 804 468 795 c 0
 463 790 451 785 436 783 c 0
 432 782 403 782 369 782 c 2
 309 782 l 1
 309 399 l 1
 309 15 l 1
 306 13 l 2
 289 -4 225 -3 210 13 c 2
 208 16 l 1
 208 400 l 1
 208 782 l 1
 147 782 l 2
 113 782 84 782 80 783 c 0
 59 786 46 793 46 801 c 0
 46 808 60 815 79 818 c 0
EndSplineSet
EndChar

StartChar: U
Encoding: 85 85 52
Width: 546
VWidth: 910
Flags: HW
LayerCount: 2
Fore
SplineSet
94 818 m 0
 119 822 149 816 159 806 c 2
 162 804 l 1
 162 479 l 2
 162 259 162 150 163 144 c 0
 168 95 190 59 226 42 c 0
 254 28 293 28 321 42 c 0
 357 59 379 95 384 144 c 0
 385 150 385 259 385 478 c 2
 385 803 l 1
 388 806 l 2
 403 822 466 823 483 806 c 2
 486 804 l 1
 486 471 l 1
 486 140 l 1
 483 128 l 2
 480 113 476 98 471 86 c 0
 446 35 396 6 317 -4 c 0
 297 -6 250 -6 231 -4 c 0
 151 6 101 35 76 86 c 0
 71 98 67 113 64 128 c 2
 62 140 l 1
 61 471 l 1
 61 803 l 1
 64 806 l 2
 69 811 79 815 94 818 c 0
EndSplineSet
EndChar

StartChar: V
Encoding: 86 86 53
Width: 576
VWidth: 910
Flags: HW
LayerCount: 2
Fore
SplineSet
79 818 m 0
 89 819 105 819 114 818 c 0
 129 815 138 811 143 806 c 0
 146 803 148 797 217 450 c 2
 289 95 l 1
 360 449 l 2
 428 793 430 803 432 806 c 0
 445 820 495 824 520 812 c 0
 526 809 531 805 531 801 c 0
 531 800 495 623 452 407 c 0
 375 23 373 16 370 13 c 0
 365 8 356 4 341 1 c 0
 328 -1 248 -1 235 1 c 0
 220 4 211 8 206 13 c 0
 203 16 201 23 124 407 c 0
 81 623 46 800 46 801 c 0
 46 808 60 815 79 818 c 0
EndSplineSet
EndChar

StartChar: W
Encoding: 87 87 54
Width: 819
VWidth: 910
Flags: HW
LayerCount: 2
Fore
SplineSet
79 818 m 0
 89 819 105 819 114 818 c 0
 129 815 138 811 143 806 c 2
 146 804 l 1
 165 683 l 2
 175 617 199 462 218 340 c 0
 236 218 253 118 253 118 c 1
 253 118 278 266 307 446 c 0
 350 710 359 774 361 776 c 0
 362 777 365 779 369 781 c 0
 388 791 432 791 451 781 c 0
 455 779 457 777 458 776 c 0
 460 774 469 710 512 446 c 0
 541 266 566 118 566 118 c 1
 566 118 583 218 601 340 c 0
 620 462 644 617 654 683 c 2
 674 804 l 1
 676 806 l 2
 691 822 754 823 771 806 c 0
 773 804 774 803 774 801 c 0
 774 799 656 33 653 20 c 0
 651 12 646 8 632 4 c 0
 619 0 611 0 561 0 c 0
 511 1 510 0 496 5 c 0
 491 7 484 11 482 14 c 0
 481 16 467 102 445 235 c 0
 426 356 410 454 410 454 c 1
 410 454 393 356 374 235 c 0
 352 102 338 16 337 14 c 0
 335 11 328 7 323 5 c 0
 309 0 309 1 259 0 c 0
 209 0 201 0 188 4 c 0
 174 8 169 12 167 20 c 0
 164 33 46 799 46 801 c 0
 46 808 60 815 79 818 c 0
EndSplineSet
EndChar

StartChar: X
Encoding: 88 88 55
Width: 546
VWidth: 910
Flags: HW
LayerCount: 2
Fore
SplineSet
96 818 m 0
 103 819 128 818 136 816 c 0
 149 813 156 810 159 805 c 0
 161 804 187 744 217 672 c 0
 248 600 273 542 273 542 c 1
 273 542 291 583 313 635 c 0
 336 687 361 746 370 767 c 0
 379 787 387 805 388 807 c 0
 393 812 411 818 430 819 c 0
 458 820 482 813 485 802 c 0
 486 801 460 739 405 611 c 0
 361 506 325 421 325 421 c 2
 325 420 363 330 410 221 c 0
 461 101 494 22 494 19 c 0
 494 16 494 16 492 13 c 0
 488 9 480 5 470 3 c 0
 458 0 433 0 421 2 c 0
 407 6 399 10 396 15 c 0
 394 16 367 80 334 157 c 0
 300 234 273 299 273 299 c 1
 273 299 246 234 212 157 c 0
 179 80 152 16 150 15 c 0
 147 10 140 6 126 2 c 0
 114 0 88 0 76 3 c 0
 66 5 58 9 54 13 c 0
 52 16 52 16 52 19 c 0
 52 22 86 101 137 221 c 0
 184 330 221 420 221 421 c 2
 221 421 186 506 141 610 c 0
 91 727 61 799 61 801 c 0
 61 808 75 815 96 818 c 0
EndSplineSet
EndChar

StartChar: Y
Encoding: 89 89 56
Width: 546
VWidth: 910
Flags: HW
LayerCount: 2
Fore
SplineSet
96 818 m 0
 103 819 128 818 136 816 c 0
 149 813 156 810 159 805 c 0
 161 804 187 744 218 674 c 0
 248 604 273 547 273 547 c 1
 273 547 292 589 314 640 c 0
 395 827 386 807 396 812 c 0
 416 822 457 821 476 812 c 0
 481 809 484 806 485 802 c 0
 486 801 461 741 405 614 c 2
 324 428 l 1
 324 222 l 1
 324 15 l 1
 321 13 l 2
 304 -4 241 -3 226 13 c 2
 223 16 l 1
 223 221 l 1
 223 426 l 1
 142 611 l 2
 92 726 61 797 61 800 c 0
 61 803 61 803 63 806 c 0
 68 811 81 816 96 818 c 0
EndSplineSet
EndChar

StartChar: Z
Encoding: 90 90 57
Width: 516
VWidth: 910
Flags: HW
LayerCount: 2
Fore
SplineSet
79 818 m 0
 87 819 428 819 436 818 c 0
 456 815 471 808 471 801 c 0
 471 800 399 627 313 418 c 2
 155 38 l 1
 297 37 l 2
 449 36 440 37 455 32 c 0
 460 30 467 27 469 23 c 0
 475 14 461 5 436 1 c 0
 427 0 89 0 80 1 c 0
 60 4 46 11 46 18 c 0
 46 19 117 192 203 401 c 2
 361 782 l 1
 219 782 l 2
 67 783 76 782 61 787 c 0
 56 789 49 792 47 796 c 0
 41 805 55 814 79 818 c 0
EndSplineSet
EndChar

StartChar: bracketleft
Encoding: 91 91 58
Width: 243
VWidth: 910
Flags: HW
LayerCount: 2
Fore
SplineSet
63 848 m 0
 74 849 168 849 180 848 c 0
 195 845 205 841 210 836 c 0
 214 831 214 830 210 825 c 0
 202 816 185 812 151 812 c 2
 131 812 l 1
 131 410 l 1
 131 7 l 1
 151 7 l 2
 185 7 202 4 210 -5 c 0
 214 -10 214 -12 210 -17 c 0
 205 -22 195 -26 180 -29 c 0
 167 -31 76 -31 63 -29 c 0
 48 -26 38 -22 33 -17 c 2
 30 -14 l 1
 30 410 l 1
 30 833 l 1
 33 836 l 2
 38 841 48 845 63 848 c 0
EndSplineSet
EndChar

StartChar: backslash
Encoding: 92 92 59
Width: 425
VWidth: 910
Flags: HW
LayerCount: 2
Fore
SplineSet
63 818 m 0
 88 822 121 815 128 806 c 0
 131 803 395 22 395 18 c 0
 395 13 386 8 376 5 c 0
 349 -3 306 1 297 13 c 0
 294 16 30 797 30 801 c 0
 30 804 35 809 40 811 c 0
 45 815 54 816 63 818 c 0
EndSplineSet
EndChar

StartChar: bracketright
Encoding: 93 93 60
Width: 243
VWidth: 910
Flags: HW
LayerCount: 2
Fore
SplineSet
63 848 m 0
 71 849 168 849 178 848 c 0
 193 846 205 841 210 836 c 2
 213 834 l 1
 213 410 l 1
 213 -15 l 1
 210 -17 l 2
 205 -22 193 -27 178 -29 c 0
 174 -30 149 -30 122 -30 c 0
 69 -30 61 -29 49 -25 c 0
 38 -22 30 -16 30 -11 c 0
 30 -8 35 -3 40 -1 c 0
 51 5 65 7 92 7 c 2
 112 7 l 1
 112 410 l 1
 112 812 l 1
 92 812 l 2
 58 812 41 816 33 825 c 0
 29 830 29 831 33 836 c 0
 38 841 48 845 63 848 c 0
EndSplineSet
EndChar

StartChar: asciicircum
Encoding: 94 94 61
Width: 303
VWidth: 910
Flags: HW
LayerCount: 2
Fore
SplineSet
134 818 m 0
 143 819 167 819 176 817 c 0
 184 815 191 813 195 810 c 0
 200 806 270 734 272 731 c 0
 273 728 273 729 271 725 c 0
 266 716 247 710 222 710 c 0
 207 710 197 711 187 715 c 0
 181 717 180 718 166 732 c 2
 151 745 l 1
 137 732 l 2
 123 718 123 717 117 715 c 0
 107 711 96 710 81 710 c 0
 56 710 37 716 32 725 c 0
 30 729 30 728 31 731 c 0
 32 733 49 751 69 772 c 0
 96 798 108 810 111 811 c 0
 116 814 124 816 134 818 c 0
EndSplineSet
EndChar

StartChar: underscore
Encoding: 95 95 62
Width: 546
VWidth: 910
Flags: HW
LayerCount: 2
Fore
SplineSet
33 -1 m 0
 42 0 501 1 512 -1 c 0
 539 -5 552 -16 543 -25 c 0
 538 -30 527 -34 512 -36 c 0
 507 -37 416 -37 273 -37 c 0
 75 -37 40 -37 33 -36 c 0
 18 -33 8 -30 3 -25 c 0
 -1 -20 -1 -18 3 -13 c 0
 8 -8 18 -4 33 -1 c 0
EndSplineSet
EndChar

StartChar: a
Encoding: 97 97 63
Width: 516
VWidth: 910
Flags: HW
LayerCount: 2
Fore
SplineSet
218 619 m 0
 236 620 272 620 286 619 c 0
 345 614 389 598 417 570 c 0
 438 549 449 524 454 489 c 0
 456 481 456 452 456 248 c 2
 456 15 l 1
 453 13 l 2
 436 -4 373 -3 358 13 c 2
 355 16 l 1
 350 14 l 2
 321 -1 276 -9 235 -5 c 0
 202 -2 177 4 152 17 c 0
 121 32 100 54 85 84 c 0
 69 116 61 155 61 205 c 0
 61 255 69 294 85 326 c 0
 100 356 121 377 152 392 c 0
 185 408 219 415 269 415 c 0
 290 415 291 415 298 417 c 0
 332 428 349 444 354 469 c 0
 355 474 355 476 354 482 c 0
 349 538 318 576 273 582 c 0
 258 584 227 583 212 579 c 0
 182 574 165 558 162 535 c 0
 162 530 161 529 158 527 c 0
 143 510 79 511 64 527 c 0
 62 530 61 531 61 535 c 0
 61 541 62 549 67 558 c 0
 73 571 89 585 106 593 c 0
 132 607 174 616 218 619 c 0
355 305 m 0
 355 383 355 386 353 386 c 0
 352 386 350 385 348 384 c 0
 340 382 316 379 303 378 c 0
 297 377 281 377 270 377 c 0
 251 377 249 377 244 375 c 0
 229 370 214 360 205 350 c 0
 177 319 162 270 162 206 c 0
 162 150 172 108 192 77 c 0
 207 53 227 39 251 33 c 0
 256 32 257 32 262 34 c 0
 274 38 291 49 301 61 c 0
 325 87 343 131 350 181 c 0
 355 212 354 219 355 305 c 0
EndSplineSet
EndChar

StartChar: b
Encoding: 98 98 64
Width: 516
VWidth: 910
Flags: HW
LayerCount: 2
Fore
SplineSet
94 818 m 0
 119 822 149 816 159 806 c 2
 162 804 l 1
 162 712 l 1
 162 621 l 1
 162 621 167 622 172 624 c 0
 186 629 203 633 220 636 c 0
 239 639 274 639 291 637 c 0
 337 630 372 611 399 579 c 0
 429 543 449 484 457 414 c 0
 461 383 461 369 461 317 c 0
 461 264 461 249 457 218 c 0
 448 136 422 74 384 39 c 0
 359 15 329 1 288 -4 c 0
 277 -6 239 -6 226 -4 c 0
 203 -1 180 5 166 10 c 2
 160 13 l 1
 156 10 l 2
 135 -5 78 -2 64 13 c 2
 61 16 l 1
 61 410 l 1
 61 803 l 1
 64 806 l 2
 69 811 79 815 94 818 c 0
265 598 m 0
 257 602 255 602 250 600 c 0
 235 596 217 585 205 571 c 0
 180 543 167 502 163 449 c 0
 162 430 162 185 163 169 c 0
 165 144 171 120 177 104 c 0
 191 69 213 45 241 35 c 0
 252 32 258 31 265 35 c 0
 287 45 306 67 320 94 c 0
 338 129 351 169 356 220 c 0
 360 251 360 266 360 317 c 0
 360 367 360 381 356 412 c 0
 351 461 338 504 321 538 c 0
 306 566 286 588 265 598 c 0
EndSplineSet
EndChar

StartChar: c
Encoding: 99 99 65
Width: 516
VWidth: 910
Flags: HW
LayerCount: 2
Fore
SplineSet
240 619 m 0
 242 620 251 620 261 620 c 0
 328 620 386 607 420 582 c 0
 441 567 454 543 456 519 c 2
 456 511 l 1
 453 508 l 2
 448 501 435 497 417 495 c 0
 392 492 366 498 358 507 c 0
 356 510 355 512 355 518 c 0
 353 531 349 543 340 554 c 0
 329 569 306 579 280 582 c 0
 263 584 258 583 248 578 c 0
 222 565 202 541 187 505 c 0
 165 455 156 396 156 308 c 0
 156 219 165 159 187 109 c 0
 202 73 222 49 248 36 c 0
 258 31 263 31 280 33 c 0
 306 36 329 45 340 60 c 0
 349 71 353 83 355 96 c 0
 355 102 356 104 358 107 c 0
 373 124 438 123 453 106 c 2
 456 104 l 1
 456 96 l 2
 454 72 441 48 420 33 c 0
 385 8 323 -7 254 -5 c 0
 227 -4 209 -2 188 5 c 0
 142 20 108 54 86 104 c 0
 70 143 61 184 56 243 c 0
 54 263 54 351 56 371 c 0
 61 440 74 492 96 532 c 0
 126 585 174 614 240 619 c 0
EndSplineSet
EndChar

StartChar: d
Encoding: 100 100 66
Width: 516
VWidth: 910
Flags: HW
LayerCount: 2
Fore
SplineSet
388 818 m 0
 413 822 443 816 453 806 c 2
 456 804 l 1
 456 410 l 1
 456 15 l 1
 453 13 l 2
 438 -2 389 -5 365 8 c 0
 362 9 361 10 360 11 c 0
 359 12 357 12 344 7 c 0
 329 2 314 -1 296 -4 c 0
 279 -6 242 -6 227 -4 c 0
 185 2 154 19 129 45 c 0
 110 64 97 89 85 122 c 0
 69 171 61 225 61 308 c 0
 61 378 66 427 78 470 c 0
 103 561 149 606 227 618 c 0
 242 620 279 620 296 618 c 0
 316 615 339 609 354 603 c 0
 355 603 355 617 355 703 c 2
 355 803 l 1
 358 806 l 2
 363 811 373 815 388 818 c 0
277 579 m 0
 265 583 261 583 256 581 c 0
 241 575 223 558 212 542 c 0
 191 513 175 468 168 417 c 0
 160 356 160 259 168 198 c 0
 175 147 191 101 212 72 c 0
 224 56 243 39 257 34 c 0
 262 32 265 31 277 35 c 0
 302 42 321 62 335 90 c 0
 344 109 349 127 353 152 c 0
 354 163 355 174 355 308 c 0
 355 441 354 451 353 463 c 0
 349 488 344 505 335 524 c 0
 321 552 302 572 277 579 c 0
EndSplineSet
EndChar

StartChar: e
Encoding: 101 101 67
Width: 500
VWidth: 910
Flags: HW
LayerCount: 2
Fore
SplineSet
225 619 m 0
 240 620 268 620 282 617 c 0
 358 605 402 558 426 463 c 0
 435 427 439 389 441 333 c 2
 441 304 l 1
 438 301 l 2
 432 296 421 291 406 289 c 0
 402 288 350 289 278 289 c 2
 156 289 l 1
 156 284 l 2
 156 263 159 219 162 198 c 0
 174 116 204 56 245 35 c 0
 254 30 256 31 271 33 c 0
 310 37 337 62 340 97 c 0
 340 102 340 104 342 107 c 0
 357 124 423 123 438 106 c 2
 441 104 l 1
 441 96 l 2
 439 76 429 56 414 41 c 0
 395 22 364 8 325 1 c 0
 300 -4 255 -7 231 -5 c 0
 206 -3 184 4 164 14 c 0
 123 35 94 71 76 127 c 0
 63 167 58 207 56 266 c 2
 55 294 l 1
 49 297 l 2
 44 300 40 303 40 308 c 0
 40 312 44 315 49 318 c 2
 55 320 l 1
 56 349 l 2
 57 380 58 398 61 419 c 0
 68 469 84 515 104 546 c 0
 131 588 172 613 225 619 c 0
257 577 m 0
 253 579 250 581 249 581 c 0
 247 581 235 573 229 568 c 0
 192 538 166 475 159 390 c 0
 157 375 156 340 156 330 c 2
 156 326 l 1
 248 326 l 1
 340 326 l 1
 340 343 l 2
 337 414 328 459 311 503 c 0
 297 538 279 564 257 577 c 0
EndSplineSet
EndChar

StartChar: f
Encoding: 102 102 68
Width: 379
VWidth: 910
Flags: HW
LayerCount: 2
Fore
SplineSet
190 824 m 0
 195 824 204 825 211 825 c 0
 267 826 314 805 337 770 c 0
 354 744 362 714 364 671 c 2
 364 654 l 1
 361 652 l 2
 356 645 343 641 325 639 c 0
 300 636 274 642 266 651 c 2
 263 654 l 1
 263 670 l 2
 262 696 258 715 252 733 c 0
 245 754 235 770 223 779 c 0
 213 786 213 786 206 781 c 0
 185 767 170 737 164 697 c 0
 163 687 163 673 162 567 c 2
 162 448 l 1
 214 448 l 2
 260 447 267 447 273 446 c 0
 287 442 294 438 298 433 c 0
 301 429 301 429 298 425 c 0
 294 420 287 416 273 412 c 0
 267 411 260 412 214 411 c 2
 162 411 l 1
 162 221 l 1
 162 32 l 1
 167 30 l 2
 172 26 177 23 177 18 c 0
 177 11 163 4 142 1 c 0
 133 0 89 0 80 1 c 0
 59 4 46 11 46 19 c 0
 46 23 51 28 56 31 c 2
 61 32 l 1
 61 224 l 1
 61 416 l 1
 56 417 l 2
 51 420 46 425 46 429 c 0
 46 434 51 439 56 441 c 2
 61 442 l 1
 61 565 l 2
 62 674 62 689 63 699 c 0
 70 745 87 777 115 797 c 0
 134 811 162 821 190 824 c 0
EndSplineSet
EndChar

StartChar: g
Encoding: 103 103 69
Width: 516
VWidth: 910
Flags: HW
LayerCount: 2
Fore
SplineSet
240 619 m 0
 242 620 251 620 261 620 c 0
 296 620 332 616 359 609 c 2
 365 607 l 1
 372 610 l 2
 398 618 440 615 453 602 c 2
 456 599 l 1
 456 247 l 1
 456 -105 l 1
 453 -114 l 2
 449 -127 446 -135 440 -145 c 0
 434 -155 421 -167 412 -173 c 0
 386 -192 351 -203 305 -208 c 0
 284 -210 233 -210 212 -208 c 0
 146 -201 100 -180 77 -145 c 0
 68 -130 62 -112 61 -96 c 0
 61 -87 61 -87 63 -84 c 0
 67 -80 75 -76 85 -74 c 0
 91 -72 95 -72 112 -72 c 0
 133 -72 141 -73 152 -78 c 0
 160 -83 162 -85 162 -95 c 0
 165 -135 189 -162 229 -171 c 0
 240 -173 277 -173 288 -171 c 0
 323 -164 344 -143 353 -109 c 0
 354 -104 354 -96 355 -49 c 0
 355 -1 355 5 354 5 c 0
 350 3 329 -1 318 -2 c 0
 289 -6 246 -7 225 -4 c 0
 182 2 149 19 122 47 c 0
 94 77 73 127 63 187 c 0
 57 224 56 248 56 308 c 0
 56 356 55 370 59 400 c 0
 64 450 78 498 96 532 c 0
 126 585 174 614 240 619 c 0
281 582 m 0
 266 584 259 583 254 581 c 0
 236 574 220 559 206 540 c 0
 187 513 170 467 163 418 c 0
 153 357 153 258 163 197 c 0
 170 148 187 102 206 75 c 0
 218 58 232 44 248 36 c 0
 258 31 263 31 280 33 c 0
 318 37 343 54 352 84 c 2
 355 91 l 1
 355 308 l 1
 355 524 l 1
 352 531 l 2
 349 539 345 548 340 554 c 0
 329 569 306 579 281 582 c 0
EndSplineSet
EndChar

StartChar: h
Encoding: 104 104 70
Width: 516
VWidth: 910
Flags: HW
LayerCount: 2
Fore
SplineSet
94 818 m 0
 119 822 149 816 159 806 c 2
 162 804 l 1
 162 707 l 1
 162 610 l 1
 167 612 l 2
 176 614 193 616 208 618 c 0
 229 620 276 620 291 618 c 0
 328 612 356 599 381 576 c 0
 396 562 408 547 419 525 c 0
 437 489 447 446 452 393 c 0
 456 362 456 337 456 177 c 2
 456 15 l 1
 453 13 l 2
 436 -4 373 -3 358 13 c 2
 355 16 l 1
 355 177 l 2
 355 272 355 344 354 357 c 0
 351 414 345 455 330 494 c 0
 325 510 311 534 304 544 c 0
 292 559 275 576 261 581 c 0
 256 583 251 584 236 582 c 0
 211 579 189 569 177 554 c 0
 172 547 165 534 163 526 c 0
 162 520 162 486 162 267 c 2
 162 15 l 1
 159 13 l 2
 142 -4 79 -3 64 13 c 2
 61 16 l 1
 61 410 l 1
 61 803 l 1
 64 806 l 2
 69 811 79 815 94 818 c 0
EndSplineSet
EndChar

StartChar: i
Encoding: 105 105 71
Width: 273
VWidth: 910
Flags: HW
LayerCount: 2
Fore
SplineSet
120 735 m 0
 124 735 132 735 140 735 c 0
 152 734 156 735 164 733 c 0
 175 729 181 727 185 722 c 0
 189 718 189 716 185 712 c 0
 181 707 175 705 164 701 c 0
 155 699 153 699 137 699 c 0
 121 699 118 699 110 701 c 0
 105 703 99 704 96 706 c 0
 91 709 86 713 86 716 c 0
 86 720 89 723 94 726 c 0
 99 729 112 734 120 735 c 0
105 613 m 0
 113 614 159 614 167 613 c 0
 188 610 202 603 202 596 c 0
 202 591 198 588 193 584 c 2
 188 583 l 1
 188 308 l 1
 188 32 l 1
 193 30 l 2
 198 26 202 23 202 19 c 0
 202 11 188 4 167 1 c 0
 158 0 115 0 106 1 c 0
 85 4 71 11 71 19 c 0
 71 23 77 28 82 31 c 2
 86 32 l 1
 86 308 l 1
 86 583 l 1
 82 583 l 2
 77 586 71 591 71 595 c 0
 71 603 85 610 105 613 c 0
EndSplineSet
EndChar

StartChar: j
Encoding: 106 106 72
Width: 364
VWidth: 910
Flags: HW
LayerCount: 2
Fore
SplineSet
237 735 m 0
 241 735 249 735 257 735 c 0
 272 734 285 732 294 727 c 0
 299 724 304 720 304 717 c 0
 304 713 299 709 294 706 c 0
 291 704 285 703 280 701 c 0
 271 699 269 699 253 699 c 0
 237 699 235 699 227 701 c 0
 222 703 215 704 212 706 c 0
 207 709 202 713 202 716 c 0
 202 720 205 723 210 726 c 0
 215 729 229 734 237 735 c 0
221 613 m 0
 229 614 276 614 284 613 c 0
 305 610 319 603 319 596 c 0
 319 591 314 588 309 584 c 2
 304 583 l 1
 304 269 l 2
 303 -22 303 -44 302 -56 c 0
 296 -109 283 -145 259 -170 c 0
 232 -200 184 -214 133 -209 c 0
 80 -204 44 -180 24 -137 c 0
 9 -106 2 -72 0 -22 c 2
 0 0 l 1
 3 3 l 2
 8 9 18 12 33 15 c 0
 58 19 88 14 98 4 c 2
 101 1 l 1
 101 -11 l 2
 101 -26 103 -48 105 -63 c 0
 110 -107 126 -146 146 -163 c 0
 149 -166 151 -167 152 -167 c 0
 153 -167 155 -166 158 -163 c 0
 178 -146 194 -107 199 -63 c 0
 203 -38 203 -23 203 280 c 2
 203 583 l 1
 198 583 l 2
 193 586 188 591 188 595 c 0
 188 603 201 610 221 613 c 0
EndSplineSet
EndChar

StartChar: k
Encoding: 107 107 73
Width: 485
VWidth: 910
Flags: HW
LayerCount: 2
Fore
SplineSet
94 818 m 0
 119 822 149 816 159 806 c 2
 162 804 l 1
 162 611 l 1
 163 417 l 1
 261 521 l 2
 369 634 362 626 377 630 c 0
 412 639 462 627 454 612 c 0
 453 610 408 561 352 503 c 0
 296 446 252 398 252 398 c 2
 252 397 298 312 354 208 c 0
 410 104 455 19 455 18 c 0
 455 13 447 8 436 5 c 0
 409 -3 366 1 357 13 c 0
 355 15 318 83 273 167 c 0
 227 251 189 321 188 324 c 2
 186 329 l 1
 174 317 l 1
 162 305 l 1
 162 160 l 1
 162 15 l 1
 159 13 l 2
 142 -4 79 -3 64 13 c 2
 61 16 l 1
 61 410 l 1
 61 803 l 1
 64 806 l 2
 69 811 79 815 94 818 c 0
EndSplineSet
EndChar

StartChar: l
Encoding: 108 108 74
Width: 273
VWidth: 910
Flags: HW
LayerCount: 2
Fore
SplineSet
119 818 m 0
 144 822 175 816 185 806 c 2
 188 804 l 1
 188 410 l 1
 188 15 l 1
 185 13 l 2
 168 -4 104 -3 89 13 c 2
 86 16 l 1
 86 410 l 1
 86 803 l 1
 89 806 l 2
 94 811 104 815 119 818 c 0
EndSplineSet
EndChar

StartChar: m
Encoding: 109 109 75
Width: 728
VWidth: 910
Flags: HW
LayerCount: 2
Fore
SplineSet
219 619 m 0
 228 620 261 619 269 618 c 0
 309 612 337 594 360 565 c 2
 365 559 l 1
 369 564 l 2
 375 573 387 586 396 592 c 0
 411 603 424 609 444 614 c 0
 460 618 470 619 492 619 c 0
 513 619 522 618 539 614 c 0
 591 600 624 566 645 500 c 0
 658 459 664 418 667 360 c 0
 668 348 668 269 668 177 c 2
 668 15 l 1
 665 13 l 2
 648 -4 585 -3 570 13 c 2
 567 16 l 1
 567 177 l 2
 567 267 567 347 566 359 c 0
 563 417 558 455 545 494 c 0
 532 532 517 558 498 573 c 0
 494 576 492 579 492 579 c 2
 491 579 488 576 484 573 c 0
 449 546 426 481 419 396 c 0
 415 363 415 336 415 177 c 2
 415 15 l 1
 412 13 l 2
 395 -4 332 -3 317 13 c 2
 314 16 l 1
 314 177 l 2
 314 267 314 347 313 359 c 0
 310 417 305 455 292 494 c 0
 279 532 264 558 245 573 c 0
 234 582 235 582 225 577 c 0
 206 568 192 554 181 530 c 0
 173 513 169 495 165 470 c 0
 163 457 163 455 162 236 c 2
 162 15 l 1
 159 13 l 2
 142 -4 79 -3 64 13 c 2
 61 16 l 1
 61 307 l 1
 61 598 l 1
 64 602 l 2
 77 616 126 619 151 607 c 2
 156 605 l 1
 160 607 l 2
 173 612 199 617 219 619 c 0
EndSplineSet
EndChar

StartChar: n
Encoding: 110 110 76
Width: 516
VWidth: 910
Flags: HW
LayerCount: 2
Fore
SplineSet
238 619 m 0
 247 620 282 619 291 618 c 0
 328 612 356 599 381 576 c 0
 396 562 408 547 419 525 c 0
 437 489 447 446 452 393 c 0
 456 362 456 337 456 177 c 2
 456 15 l 1
 453 13 l 2
 436 -4 373 -3 358 13 c 2
 355 16 l 1
 355 177 l 2
 355 272 355 344 354 357 c 0
 350 428 341 477 318 521 c 0
 310 538 302 548 290 560 c 0
 281 569 268 578 260 581 c 0
 255 583 254 583 248 582 c 0
 209 573 179 537 168 486 c 0
 162 460 163 475 162 235 c 2
 162 15 l 1
 159 13 l 2
 142 -4 79 -3 64 13 c 2
 61 16 l 1
 61 307 l 1
 61 598 l 1
 64 602 l 2
 72 610 93 615 117 614 c 0
 133 613 147 610 155 605 c 2
 159 603 l 1
 173 607 l 2
 193 613 212 617 238 619 c 0
EndSplineSet
EndChar

StartChar: o
Encoding: 111 111 77
Width: 576
VWidth: 910
Flags: HW
LayerCount: 2
Fore
SplineSet
268 619 m 0
 277 620 315 619 326 618 c 0
 392 609 444 582 478 537 c 0
 497 512 513 476 522 440 c 0
 532 400 535 366 535 308 c 0
 535 249 532 215 522 176 c 0
 510 130 490 89 464 62 c 0
 430 27 384 4 326 -4 c 0
 309 -6 267 -6 251 -4 c 0
 192 4 146 27 112 62 c 0
 102 72 94 81 86 96 c 0
 61 139 47 185 42 253 c 0
 40 271 40 343 42 362 c 0
 47 429 61 476 86 519 c 0
 94 534 102 543 112 553 c 0
 148 592 202 614 268 619 c 0
308 580 m 0
 289 585 271 583 248 571 c 0
 224 560 206 542 191 520 c 0
 156 469 141 403 141 308 c 0
 141 212 156 146 191 95 c 0
 206 71 226 54 250 42 c 0
 266 35 275 33 289 33 c 0
 302 33 310 35 326 42 c 0
 350 54 370 71 385 95 c 0
 420 146 435 212 435 308 c 0
 435 403 420 469 385 520 c 0
 366 548 337 571 308 580 c 0
EndSplineSet
EndChar

StartChar: p
Encoding: 112 112 78
Width: 500
VWidth: 910
Flags: HW
LayerCount: 2
Fore
SplineSet
231 619 m 0
 233 620 241 620 248 620 c 0
 294 620 332 609 363 587 c 0
 373 580 392 563 399 553 c 0
 424 520 441 471 449 416 c 0
 458 354 458 260 449 198 c 0
 441 143 424 95 399 62 c 0
 392 52 373 34 363 27 c 0
 330 4 289 -7 241 -5 c 0
 216 -4 196 -1 176 5 c 0
 170 6 165 8 164 9 c 0
 162 9 162 5 162 -90 c 2
 162 -189 l 1
 159 -192 l 2
 142 -209 79 -208 64 -192 c 2
 61 -188 l 1
 61 205 l 1
 61 598 l 1
 64 602 l 2
 72 610 93 615 117 614 c 0
 133 613 149 610 155 605 c 2
 157 603 l 1
 169 608 l 2
 187 613 208 617 231 619 c 0
259 579 m 0
 251 583 247 583 241 582 c 0
 199 570 171 526 164 461 c 0
 162 445 162 170 164 155 c 0
 170 93 197 49 235 35 c 0
 246 31 251 31 259 35 c 0
 283 47 303 69 318 98 c 0
 343 151 354 212 354 308 c 0
 354 403 343 463 318 516 c 0
 303 545 282 567 259 579 c 0
EndSplineSet
EndChar

StartChar: q
Encoding: 113 113 79
Width: 500
VWidth: 910
Flags: HW
LayerCount: 2
Fore
SplineSet
233 619 m 0
 240 620 263 620 274 619 c 0
 296 617 320 611 336 606 c 2
 344 603 l 1
 347 605 l 1
 367 619 423 617 438 602 c 2
 441 599 l 1
 441 205 l 1
 441 -189 l 1
 438 -192 l 2
 421 -209 357 -208 342 -192 c 2
 340 -188 l 1
 340 -89 l 1
 340 10 l 1
 329 6 l 2
 318 2 297 -2 282 -4 c 0
 269 -6 232 -6 221 -4 c 0
 196 0 177 6 159 15 c 0
 142 23 131 31 117 45 c 0
 102 60 91 75 81 96 c 0
 56 151 46 212 46 308 c 0
 46 403 56 463 81 518 c 0
 91 539 102 555 117 571 c 0
 131 584 142 592 159 600 c 0
 181 611 201 616 233 619 c 0
263 580 m 0
 254 583 251 583 244 580 c 0
 219 569 198 546 183 516 c 0
 158 463 147 402 147 308 c 0
 147 213 158 151 183 99 c 0
 198 67 221 44 246 34 c 2
 252 32 l 1
 259 33 l 2
 266 35 278 41 285 46 c 0
 308 61 327 94 334 131 c 0
 339 156 340 154 340 308 c 0
 340 461 339 458 334 483 c 0
 324 532 298 568 263 580 c 0
EndSplineSet
EndChar

StartChar: r
Encoding: 114 114 80
Width: 455
VWidth: 910
Flags: HW
LayerCount: 2
Fore
SplineSet
225 619 m 0
 227 620 236 620 245 620 c 0
 305 620 356 609 388 588 c 0
 396 583 408 570 413 562 c 0
 420 550 425 535 425 524 c 0
 425 520 424 519 421 516 c 0
 416 510 404 506 386 504 c 0
 361 501 335 507 328 516 c 0
 325 519 324 520 324 526 c 0
 322 541 315 556 305 565 c 0
 295 574 280 580 263 582 c 0
 248 584 238 583 230 579 c 0
 199 566 177 536 168 492 c 0
 162 466 163 481 162 246 c 2
 162 32 l 1
 167 30 l 2
 173 26 177 23 177 19 c 0
 177 11 163 4 142 1 c 0
 133 0 89 0 80 1 c 0
 59 4 46 11 46 19 c 0
 46 23 51 28 56 31 c 2
 61 32 l 1
 61 315 l 1
 61 598 l 1
 64 602 l 2
 77 616 126 619 151 607 c 2
 157 604 l 1
 160 606 l 2
 174 611 200 617 225 619 c 0
EndSplineSet
EndChar

StartChar: s
Encoding: 115 115 81
Width: 516
VWidth: 910
Flags: HW
LayerCount: 2
Fore
SplineSet
229 619 m 0
 234 619 248 620 259 620 c 0
 349 621 415 598 441 560 c 0
 449 547 455 533 456 519 c 2
 456 511 l 1
 453 508 l 2
 448 501 435 497 417 495 c 0
 392 492 366 498 358 507 c 0
 356 510 355 512 355 518 c 0
 353 531 349 543 340 554 c 0
 329 569 306 579 281 582 c 0
 250 585 229 581 210 570 c 0
 177 552 159 512 156 463 c 0
 156 455 156 447 157 442 c 0
 158 432 162 417 167 409 c 0
 177 390 198 370 223 354 c 0
 240 344 265 332 304 316 c 0
 319 311 348 295 360 289 c 0
 413 259 443 225 453 187 c 0
 457 170 456 142 451 117 c 0
 439 58 403 21 339 5 c 0
 312 -2 292 -6 254 -5 c 0
 221 -5 207 -4 184 0 c 0
 117 11 77 38 64 80 c 0
 63 84 62 91 61 96 c 2
 61 104 l 1
 64 106 l 2
 69 113 82 117 100 119 c 0
 125 122 151 116 159 107 c 0
 161 104 162 102 162 96 c 0
 164 83 168 71 177 60 c 0
 192 41 222 31 260 32 c 0
 275 33 284 35 295 40 c 0
 319 52 336 71 346 100 c 0
 354 125 357 162 352 183 c 0
 343 221 311 252 254 279 c 0
 245 284 232 289 226 292 c 0
 171 315 142 331 116 350 c 0
 76 380 57 412 55 451 c 0
 54 480 60 510 72 533 c 0
 95 579 139 606 207 616 c 0
 214 617 224 618 229 619 c 0
EndSplineSet
EndChar

StartChar: t
Encoding: 116 116 82
Width: 364
VWidth: 910
Flags: HW
LayerCount: 2
Fore
SplineSet
165 818 m 0
 190 822 220 816 230 806 c 2
 233 804 l 1
 233 709 l 1
 233 614 l 1
 263 614 l 2
 299 614 312 612 324 606 c 0
 329 604 334 599 334 596 c 0
 334 592 329 587 324 585 c 0
 312 579 299 577 263 577 c 2
 233 577 l 1
 233 305 l 1
 233 32 l 1
 238 30 l 2
 243 26 248 23 248 19 c 0
 248 11 234 4 213 1 c 0
 204 0 160 0 151 1 c 0
 130 4 117 11 117 19 c 0
 117 23 122 28 127 31 c 2
 132 32 l 1
 132 305 l 1
 132 577 l 1
 102 577 l 2
 65 577 53 579 40 585 c 0
 35 587 30 592 30 595 c 0
 30 599 35 604 40 606 c 0
 53 612 65 614 102 614 c 2
 132 614 l 1
 132 708 l 1
 132 803 l 1
 135 806 l 2
 140 811 150 815 165 818 c 0
EndSplineSet
EndChar

StartChar: u
Encoding: 117 117 83
Width: 516
VWidth: 910
Flags: HW
LayerCount: 2
Fore
SplineSet
94 613 m 0
 119 617 149 612 159 602 c 2
 162 599 l 1
 162 439 l 2
 162 343 162 271 163 259 c 0
 167 187 176 138 199 94 c 0
 207 77 215 67 227 55 c 0
 236 46 249 37 257 34 c 0
 262 32 263 32 269 33 c 0
 308 42 338 77 349 128 c 0
 355 153 354 140 355 380 c 2
 356 599 l 1
 359 602 l 2
 374 618 436 619 453 602 c 2
 456 599 l 1
 456 308 l 1
 456 15 l 1
 453 13 l 2
 438 -2 389 -5 365 8 c 0
 362 9 361 10 360 11 c 0
 359 12 357 12 344 7 c 0
 329 2 314 -1 296 -4 c 0
 279 -6 242 -6 227 -4 c 0
 189 2 161 15 136 38 c 0
 121 52 109 67 98 89 c 0
 80 125 70 168 65 222 c 0
 61 252 61 278 61 437 c 2
 61 598 l 1
 64 602 l 2
 69 607 79 610 94 613 c 0
EndSplineSet
EndChar

StartChar: v
Encoding: 118 118 84
Width: 485
VWidth: 910
Flags: HW
LayerCount: 2
Fore
SplineSet
79 613 m 0
 89 614 105 614 114 613 c 0
 129 610 139 607 144 602 c 0
 146 599 148 593 195 349 c 0
 221 211 243 99 243 100 c 0
 243 101 265 213 291 350 c 0
 338 595 339 599 342 602 c 0
 355 616 404 619 429 607 c 0
 435 604 440 600 440 596 c 0
 440 595 414 464 384 305 c 0
 328 19 328 16 325 13 c 0
 320 8 311 4 296 1 c 0
 283 -1 202 -1 189 1 c 0
 174 4 165 8 160 13 c 0
 157 16 157 19 101 305 c 0
 71 464 46 595 46 596 c 0
 46 603 60 610 79 613 c 0
EndSplineSet
EndChar

StartChar: w
Encoding: 119 119 85
Width: 758
VWidth: 910
Flags: HW
LayerCount: 2
Fore
SplineSet
50 613 m 0
 57 614 82 614 90 612 c 0
 103 609 110 606 114 601 c 0
 116 599 130 530 168 346 c 0
 198 208 222 94 222 93 c 2
 222 93 245 201 273 332 c 0
 300 464 325 578 326 585 c 0
 330 600 331 602 339 607 c 0
 356 615 391 617 414 609 c 0
 419 607 426 604 428 601 c 0
 429 599 453 485 482 346 c 0
 511 207 536 93 536 93 c 2
 536 94 560 208 590 346 c 0
 628 530 642 599 644 601 c 0
 648 606 656 610 669 613 c 0
 681 615 706 615 718 612 c 0
 733 608 743 602 743 596 c 0
 743 594 716 463 682 304 c 2
 622 15 l 1
 618 12 l 2
 613 7 602 3 587 1 c 0
 575 -1 492 0 482 1 c 0
 467 4 458 8 453 13 c 0
 450 15 449 25 415 185 c 2
 380 355 l 1
 343 185 l 2
 309 25 308 15 305 13 c 0
 300 8 291 4 276 1 c 0
 266 0 183 -1 171 1 c 0
 156 3 145 7 140 12 c 2
 137 15 l 1
 76 304 l 2
 42 463 15 594 15 596 c 0
 15 603 29 610 50 613 c 0
EndSplineSet
EndChar

StartChar: x
Encoding: 120 120 86
Width: 485
VWidth: 910
Flags: HW
LayerCount: 2
Fore
SplineSet
88 613 m 0
 113 617 143 612 152 602 c 0
 154 600 186 537 233 441 c 2
 243 421 l 1
 287 510 l 2
 311 558 331 600 332 602 c 0
 345 616 395 619 420 607 c 0
 426 604 431 600 431 596 c 0
 431 594 404 541 362 455 c 2
 294 317 l 1
 367 168 l 2
 413 76 440 20 440 18 c 0
 440 16 439 15 437 13 c 0
 421 -3 359 -4 342 12 c 0
 340 14 326 44 291 113 c 0
 265 168 242 212 242 212 c 1
 242 212 220 168 194 114 c 0
 168 59 145 14 143 13 c 0
 130 -1 81 -5 56 7 c 0
 50 10 46 14 46 18 c 0
 46 20 72 76 118 168 c 2
 191 317 l 1
 123 455 l 2
 81 541 55 594 55 596 c 0
 55 603 69 610 88 613 c 0
EndSplineSet
EndChar

StartChar: y
Encoding: 121 121 87
Width: 485
VWidth: 910
Flags: HW
LayerCount: 2
Fore
SplineSet
79 613 m 0
 89 614 105 614 114 613 c 0
 129 610 138 607 143 602 c 0
 146 599 149 584 194 410 c 0
 220 305 242 219 242 219 c 2
 242 218 264 304 291 409 c 0
 335 583 339 599 341 602 c 0
 354 616 404 619 429 607 c 0
 435 604 440 600 440 596 c 0
 440 595 395 418 340 202 c 0
 248 -159 241 -190 238 -192 c 0
 227 -204 190 -208 162 -201 c 0
 149 -198 140 -192 140 -187 c 0
 140 -186 152 -140 166 -84 c 0
 181 -28 191 17 191 19 c 0
 191 20 158 150 118 308 c 0
 78 465 46 595 46 596 c 0
 46 603 61 610 79 613 c 0
EndSplineSet
EndChar

StartChar: z
Encoding: 122 122 88
Width: 485
VWidth: 910
Flags: HW
LayerCount: 2
Fore
SplineSet
79 613 m 0
 87 614 397 614 405 613 c 0
 425 610 440 603 440 596 c 0
 440 594 389 495 299 317 c 0
 222 165 158 40 157 39 c 0
 157 37 164 37 278 37 c 0
 350 37 401 37 405 36 c 0
 420 34 432 30 437 25 c 0
 446 16 432 5 405 1 c 0
 396 0 89 0 80 1 c 0
 60 4 46 11 46 18 c 0
 46 20 96 120 186 298 c 0
 263 450 327 574 328 575 c 0
 328 577 322 577 208 577 c 0
 136 577 84 577 80 578 c 0
 59 581 46 588 46 596 c 0
 46 603 60 610 79 613 c 0
EndSplineSet
EndChar

StartChar: braceleft
Encoding: 123 123 89
Width: 273
VWidth: 910
Flags: HW
LayerCount: 2
Fore
SplineSet
174 848 m 0
 177 848 185 849 192 849 c 0
 234 849 257 833 232 819 c 0
 227 816 219 809 214 804 c 0
 208 797 201 782 198 771 c 0
 187 733 184 690 184 620 c 0
 184 550 180 509 170 471 c 0
 165 446 158 433 143 418 c 2
 134 410 l 1
 143 401 l 2
 158 386 165 374 170 349 c 0
 180 311 184 269 184 200 c 0
 184 129 187 86 198 48 c 0
 201 37 208 22 214 15 c 0
 219 10 227 3 232 0 c 0
 237 -3 242 -7 242 -10 c 0
 244 -18 233 -25 212 -29 c 0
 200 -31 176 -30 166 -27 c 0
 134 -19 106 10 97 45 c 0
 86 86 83 125 83 198 c 0
 83 266 79 309 70 345 c 0
 63 373 53 387 31 401 c 0
 29 402 27 404 26 406 c 2
 25 410 l 1
 26 413 l 2
 27 415 29 417 31 418 c 0
 53 432 63 446 70 474 c 0
 79 510 83 553 83 622 c 0
 83 694 86 734 97 775 c 0
 102 792 110 807 122 820 c 0
 137 835 156 845 174 848 c 0
EndSplineSet
EndChar

StartChar: bar
Encoding: 124 124 90
Width: 303
VWidth: 910
Flags: HW
LayerCount: 2
Fore
SplineSet
134 818 m 0
 159 822 189 816 199 806 c 2
 202 804 l 1
 202 410 l 1
 202 15 l 1
 199 13 l 2
 182 -4 119 -3 104 13 c 2
 101 16 l 1
 101 410 l 1
 101 803 l 1
 104 806 l 2
 109 811 119 815 134 818 c 0
EndSplineSet
EndChar

StartChar: braceright
Encoding: 125 125 91
Width: 273
VWidth: 910
Flags: HW
LayerCount: 2
Fore
SplineSet
49 847 m 0
 59 850 87 850 97 847 c 0
 112 843 131 831 144 818 c 0
 161 800 169 782 176 740 c 0
 181 710 183 689 184 622 c 0
 184 590 185 559 186 553 c 0
 190 504 198 464 209 447 c 0
 216 435 224 427 238 421 c 0
 244 417 248 414 248 410 c 0
 248 406 244 402 238 398 c 0
 212 384 200 365 192 317 c 0
 187 287 185 265 184 198 c 0
 183 130 181 109 176 79 c 0
 169 37 161 19 144 1 c 0
 131 -12 112 -23 97 -27 c 0
 86 -30 63 -31 50 -29 c 0
 31 -25 19 -19 19 -11 c 0
 19 -8 24 -4 30 0 c 0
 45 8 58 21 64 38 c 0
 69 52 75 82 78 106 c 0
 81 131 82 144 83 200 c 0
 84 267 86 289 91 319 c 0
 96 352 103 369 113 384 c 0
 117 390 131 404 136 408 c 2
 138 410 l 1
 136 411 l 2
 131 415 117 429 113 435 c 0
 103 450 96 468 91 501 c 0
 86 531 84 552 83 620 c 0
 82 676 81 689 78 714 c 0
 75 738 69 767 64 781 c 0
 58 798 45 811 30 819 c 0
 24 823 19 827 19 830 c 0
 19 837 30 844 49 847 c 0
EndSplineSet
EndChar

StartChar: asciitilde
Encoding: 126 126 92
Width: 607
VWidth: 910
Flags: HW
LayerCount: 2
Fore
SplineSet
160 391 m 0
 165 391 178 392 190 392 c 0
 280 392 337 370 351 326 c 0
 352 321 353 315 354 309 c 0
 355 294 358 286 365 277 c 0
 370 272 378 266 387 262 c 0
 394 260 395 260 415 260 c 0
 435 260 436 260 443 262 c 0
 462 268 474 283 476 303 c 0
 476 308 477 310 479 313 c 0
 494 329 557 330 574 313 c 2
 577 310 l 1
 577 303 l 2
 576 288 569 273 557 261 c 0
 546 249 532 242 511 235 c 0
 486 227 454 222 415 222 c 0
 326 222 270 246 256 289 c 0
 255 294 254 300 253 306 c 0
 252 321 249 329 242 338 c 0
 237 343 229 348 220 352 c 0
 213 354 212 354 192 354 c 0
 172 354 171 354 164 352 c 0
 145 346 133 330 131 310 c 0
 131 305 130 303 127 300 c 0
 111 284 48 285 33 302 c 0
 30 305 30 305 30 312 c 0
 32 327 38 341 50 353 c 0
 61 365 75 373 96 380 c 0
 114 386 135 389 160 391 c 0
EndSplineSet
EndChar

StartChar: Adieresis
Encoding: 196 196 93
Width: 637
VWidth: 910
Flags: HW
LayerCount: 2
Fore
SplineSet
217 893 m 0
 256 898 299 887 299 872 c 0
 299 860 270 849 238 849 c 0
 205 849 177 860 177 872 c 0
 177 881 194 890 217 893 c 0
378 893 m 0
 417 898 460 887 460 872 c 0
 460 860 432 849 400 849 c 0
 367 849 339 860 339 872 c 0
 339 881 355 890 378 893 c 0
269 818 m 0
 271 819 295 819 322 819 c 0
 368 818 373 818 380 816 c 0
 392 813 400 810 403 805 c 0
 404 803 592 21 592 18 c 0
 592 14 587 10 581 7 c 0
 556 -5 507 -1 494 13 c 0
 491 16 483 47 417 326 c 1
 413 342 l 1
 319 342 l 1
 224 342 l 1
 220 326 l 1
 154 47 146 16 143 13 c 0
 130 -1 81 -5 56 7 c 0
 50 10 46 14 46 18 c 0
 46 21 233 803 234 805 c 0
 238 811 252 816 269 818 c 0
361 558 m 0
 337 655 319 735 319 735 c 1
 319 735 300 655 276 558 c 0
 253 462 234 381 233 380 c 0
 233 379 251 380 319 380 c 0
 387 380 404 379 404 380 c 0
 403 381 384 462 361 558 c 0
EndSplineSet
EndChar

StartChar: Ccedilla
Encoding: 199 199 94
Width: 546
VWidth: 910
Flags: HW
LayerCount: 2
Fore
SplineSet
256 824 m 0
 258 825 267 825 277 825 c 0
 367 826 439 804 475 765 c 0
 493 746 504 719 506 694 c 2
 506 684 l 1
 502 681 l 2
 494 673 478 669 456 669 c 0
 433 669 417 673 410 680 c 2
 405 684 l 1
 405 694 l 2
 403 717 393 739 378 755 c 0
 367 765 353 774 337 779 c 0
 322 784 314 785 294 786 c 0
 275 788 273 787 260 780 c 0
 242 768 222 746 208 720 c 0
 187 682 170 620 163 559 c 0
 158 513 157 485 157 410 c 0
 157 335 158 306 163 260 c 0
 172 187 192 122 218 83 c 0
 231 64 245 48 260 39 c 0
 273 32 275 31 294 33 c 0
 314 34 322 35 337 40 c 0
 353 45 367 54 378 64 c 0
 393 80 403 103 405 126 c 2
 405 136 l 1
 410 139 l 2
 417 146 433 150 456 150 c 0
 478 150 494 146 502 138 c 2
 506 135 l 1
 506 125 l 2
 504 93 486 62 461 42 c 0
 438 24 404 10 368 3 c 2
 362 2 l 1
 366 -4 l 2
 369 -8 371 -11 372 -14 c 0
 376 -20 379 -34 379 -42 c 0
 379 -51 376 -65 372 -71 c 0
 362 -91 344 -105 317 -111 c 0
 302 -116 294 -116 275 -116 c 0
 260 -116 255 -116 248 -114 c 0
 222 -109 215 -95 234 -86 c 0
 239 -83 253 -80 258 -80 c 0
 262 -80 267 -73 271 -66 c 0
 275 -61 278 -49 278 -42 c 0
 278 -31 272 -17 266 -9 c 0
 261 -5 261 -6 246 -4 c 0
 221 -1 194 7 174 20 c 0
 142 39 117 71 99 114 c 0
 74 170 61 235 56 325 c 0
 54 351 54 468 56 495 c 0
 61 584 74 649 99 705 c 0
 120 754 151 790 189 807 c 0
 208 816 229 821 256 824 c 0
EndSplineSet
EndChar

StartChar: Odieresis
Encoding: 214 214 95
Width: 698
VWidth: 910
Flags: HW
LayerCount: 2
Fore
SplineSet
247 893 m 0
 286 898 329 887 329 872 c 0
 329 860 301 849 269 849 c 0
 236 849 208 860 208 872 c 0
 208 881 224 890 247 893 c 0
409 893 m 0
 448 898 491 887 491 872 c 0
 491 860 463 849 431 849 c 0
 398 849 370 860 370 872 c 0
 370 881 386 890 409 893 c 0
321 824 m 0
 336 825 377 824 393 822 c 0
 454 814 502 794 544 759 c 0
 603 708 644 618 654 505 c 0
 658 471 657 459 657 410 c 0
 657 361 658 348 654 315 c 0
 649 260 636 208 619 167 c 0
 586 91 541 44 471 16 c 0
 448 7 422 1 392 -3 c 0
 370 -6 328 -6 306 -3 c 0
 243 5 196 25 154 60 c 0
 95 111 55 201 45 315 c 0
 41 348 41 361 41 410 c 0
 41 459 41 471 45 505 c 0
 51 577 69 640 98 690 c 0
 111 712 122 728 137 743 c 0
 183 790 245 818 321 824 c 0
367 786 m 0
 342 791 318 786 289 771 c 0
 251 753 221 724 198 684 c 0
 170 635 152 574 146 503 c 0
 142 469 142 457 142 410 c 0
 142 363 142 350 146 317 c 0
 156 208 193 121 248 75 c 0
 280 49 319 32 350 32 c 0
 367 32 389 37 411 48 c 0
 448 66 477 95 500 135 c 0
 528 184 547 245 553 317 c 0
 557 350 556 363 556 410 c 0
 556 457 557 469 553 503 c 0
 543 611 506 699 451 745 c 0
 426 767 394 781 367 786 c 0
EndSplineSet
EndChar

StartChar: Udieresis
Encoding: 220 220 96
Width: 607
VWidth: 910
Flags: HW
LayerCount: 2
Fore
SplineSet
201 893 m 0
 240 898 283 887 283 872 c 0
 283 860 255 849 223 849 c 0
 190 849 162 860 162 872 c 0
 162 881 178 890 201 893 c 0
363 893 m 0
 402 898 445 887 445 872 c 0
 445 860 417 849 385 849 c 0
 352 849 324 860 324 872 c 0
 324 881 340 890 363 893 c 0
94 818 m 0
 119 822 149 816 159 806 c 2
 162 804 l 1
 162 487 l 2
 163 133 162 164 168 138 c 0
 179 95 203 64 238 47 c 0
 251 41 257 39 272 35 c 0
 282 33 285 33 304 33 c 0
 323 33 326 33 336 35 c 0
 351 39 357 41 370 47 c 0
 410 67 435 104 444 160 c 0
 445 169 445 188 446 487 c 2
 447 804 l 1
 450 806 l 2
 465 822 527 823 544 806 c 2
 547 804 l 1
 547 492 l 2
 547 287 547 177 546 171 c 0
 541 124 525 86 498 58 c 0
 463 23 418 4 350 -4 c 0
 330 -6 278 -6 259 -4 c 0
 190 4 145 23 110 58 c 0
 83 86 67 124 62 171 c 0
 61 177 61 288 61 492 c 2
 61 803 l 1
 64 806 l 2
 69 811 79 815 94 818 c 0
EndSplineSet
EndChar

StartChar: adieresis
Encoding: 228 228 97
Width: 516
VWidth: 910
Flags: HW
LayerCount: 2
Fore
SplineSet
156 688 m 0
 195 693 238 682 238 667 c 0
 238 655 209 644 177 644 c 0
 144 644 117 655 117 667 c 0
 117 676 133 685 156 688 c 0
318 688 m 0
 357 693 400 682 400 667 c 0
 400 655 372 644 340 644 c 0
 307 644 279 655 279 667 c 0
 279 676 295 685 318 688 c 0
218 619 m 0
 236 620 272 620 286 619 c 0
 345 614 389 598 417 570 c 0
 438 549 449 524 454 489 c 0
 456 481 456 452 456 248 c 2
 456 15 l 1
 453 13 l 2
 436 -4 373 -3 358 13 c 2
 355 16 l 1
 350 14 l 2
 321 -1 276 -9 235 -5 c 0
 202 -2 177 4 152 17 c 0
 121 32 100 54 85 84 c 0
 69 116 61 155 61 205 c 0
 61 255 69 294 85 326 c 0
 100 356 121 377 152 392 c 0
 185 408 219 415 269 415 c 0
 290 415 291 415 298 417 c 0
 332 428 349 444 354 469 c 0
 355 474 355 476 354 482 c 0
 349 538 318 576 273 582 c 0
 258 584 227 583 212 579 c 0
 182 574 165 558 162 535 c 0
 162 530 161 529 158 527 c 0
 143 510 79 511 64 527 c 0
 62 530 61 531 61 535 c 0
 61 541 62 549 67 558 c 0
 73 571 89 585 106 593 c 0
 132 607 174 616 218 619 c 0
355 305 m 0
 355 383 355 386 353 386 c 0
 352 386 350 385 348 384 c 0
 340 382 316 379 303 378 c 0
 297 377 281 377 270 377 c 0
 251 377 249 377 244 375 c 0
 229 370 214 360 205 350 c 0
 177 319 162 270 162 206 c 0
 162 150 172 108 192 77 c 0
 207 53 227 39 251 33 c 0
 256 32 257 32 262 34 c 0
 274 38 291 49 301 61 c 0
 325 87 343 131 350 181 c 0
 355 212 354 219 355 305 c 0
EndSplineSet
EndChar

StartChar: ccedilla
Encoding: 231 231 98
Width: 516
VWidth: 910
Flags: HW
LayerCount: 2
Fore
SplineSet
240 619 m 0
 242 620 251 620 261 620 c 0
 328 620 386 607 420 582 c 0
 441 567 454 543 456 519 c 2
 456 511 l 1
 453 508 l 2
 448 501 435 497 417 495 c 0
 392 492 366 498 358 507 c 0
 356 510 355 512 355 518 c 0
 353 531 349 543 340 554 c 0
 329 569 306 579 280 582 c 0
 263 584 258 583 248 578 c 0
 222 565 202 541 187 505 c 0
 165 455 156 396 156 308 c 0
 156 219 165 159 187 109 c 0
 202 73 222 49 248 36 c 0
 258 31 263 31 280 33 c 0
 306 36 329 45 340 60 c 0
 349 71 353 83 355 96 c 0
 355 102 356 104 358 107 c 0
 373 124 438 123 453 106 c 2
 456 104 l 1
 456 96 l 2
 454 72 441 48 420 33 c 0
 404 20 378 10 351 4 c 2
 347 3 l 1
 350 -1 l 2
 355 -6 358 -15 361 -22 c 0
 363 -29 363 -31 363 -42 c 0
 363 -54 363 -56 361 -62 c 0
 352 -88 332 -105 298 -112 c 0
 262 -120 222 -117 210 -104 c 0
 206 -99 206 -97 210 -92 c 0
 215 -87 227 -82 240 -80 c 0
 246 -80 250 -77 255 -70 c 0
 260 -61 262 -54 262 -42 c 0
 262 -31 260 -24 255 -15 c 0
 250 -9 248 -5 243 -5 c 0
 240 -4 234 -5 229 -4 c 0
 171 2 124 33 96 83 c 0
 74 123 61 174 56 243 c 0
 54 263 54 351 56 371 c 0
 61 440 74 492 96 532 c 0
 126 585 174 614 240 619 c 0
EndSplineSet
EndChar

StartChar: odieresis
Encoding: 246 246 99
Width: 576
VWidth: 910
Flags: HW
LayerCount: 2
Fore
SplineSet
186 688 m 0
 225 693 268 682 268 667 c 0
 268 655 240 644 208 644 c 0
 175 644 147 655 147 667 c 0
 147 676 163 685 186 688 c 0
348 688 m 0
 387 693 430 682 430 667 c 0
 430 655 402 644 370 644 c 0
 337 644 309 655 309 667 c 0
 309 676 325 685 348 688 c 0
268 619 m 0
 277 620 315 619 326 618 c 0
 392 609 444 582 478 537 c 0
 497 512 513 476 522 440 c 0
 532 400 535 366 535 308 c 0
 535 249 532 215 522 176 c 0
 510 130 490 89 464 62 c 0
 430 27 384 4 326 -4 c 0
 309 -6 267 -6 251 -4 c 0
 192 4 146 27 112 62 c 0
 102 72 94 81 86 96 c 0
 61 139 47 185 42 253 c 0
 40 271 40 343 42 362 c 0
 47 429 61 476 86 519 c 0
 94 534 102 543 112 553 c 0
 148 592 202 614 268 619 c 0
308 580 m 0
 289 585 271 583 248 571 c 0
 224 560 206 542 191 520 c 0
 156 469 141 403 141 308 c 0
 141 212 156 146 191 95 c 0
 206 71 226 54 250 42 c 0
 266 35 275 33 289 33 c 0
 302 33 310 35 326 42 c 0
 350 54 370 71 385 95 c 0
 420 146 435 212 435 308 c 0
 435 403 420 469 385 520 c 0
 366 548 337 571 308 580 c 0
EndSplineSet
EndChar

StartChar: udieresis
Encoding: 252 252 100
Width: 516
VWidth: 910
Flags: HW
LayerCount: 2
Fore
SplineSet
156 688 m 0
 195 693 238 682 238 667 c 0
 238 655 209 644 177 644 c 0
 144 644 117 655 117 667 c 0
 117 676 133 685 156 688 c 0
318 688 m 0
 357 693 400 682 400 667 c 0
 400 655 372 644 340 644 c 0
 307 644 279 655 279 667 c 0
 279 676 295 685 318 688 c 0
94 613 m 0
 119 617 149 612 159 602 c 2
 162 599 l 1
 162 439 l 2
 162 343 162 271 163 259 c 0
 167 187 176 138 199 94 c 0
 207 77 215 67 227 55 c 0
 236 46 249 37 257 34 c 0
 262 32 263 32 269 33 c 0
 308 42 338 77 349 128 c 0
 355 153 354 140 355 380 c 2
 356 599 l 1
 359 602 l 2
 374 618 436 619 453 602 c 2
 456 599 l 1
 456 308 l 1
 456 15 l 1
 453 13 l 2
 438 -2 389 -5 365 8 c 0
 362 9 361 10 360 11 c 0
 359 12 357 12 344 7 c 0
 329 2 314 -1 296 -4 c 0
 279 -6 242 -6 227 -4 c 0
 189 2 161 15 136 38 c 0
 121 52 109 67 98 89 c 0
 80 125 70 168 65 222 c 0
 61 252 61 278 61 437 c 2
 61 598 l 1
 64 602 l 2
 69 607 79 610 94 613 c 0
EndSplineSet
EndChar

StartChar: degree
Encoding: 176 176 101
Width: 425
VWidth: 910
Flags: HW
LayerCount: 2
Fore
SplineSet
185 818 m 0
 199 819 220 819 228 818 c 0
 259 814 272 801 256 791 c 0
 247 786 236 783 214 782 c 0
 200 781 196 781 189 778 c 0
 160 769 141 745 134 710 c 0
 131 696 131 670 134 656 c 0
 141 621 160 597 189 588 c 0
 196 585 200 585 213 584 c 0
 229 583 230 583 241 588 c 0
 246 591 257 598 263 603 c 0
 274 613 284 628 289 645 c 0
 292 654 294 672 294 680 c 0
 294 685 294 685 297 689 c 0
 304 697 320 701 345 701 c 0
 369 701 385 697 392 689 c 2
 395 685 l 1
 395 674 l 2
 393 639 381 611 359 590 c 0
 335 569 300 553 261 548 c 0
 238 545 200 546 168 550 c 0
 122 555 89 569 65 593 c 0
 48 610 37 630 32 657 c 0
 30 668 30 698 32 709 c 0
 37 736 48 756 65 773 c 0
 90 798 132 813 185 818 c 0
EndSplineSet
EndChar

StartChar: grave
Encoding: 96 96 102
Width: 152
VWidth: 910
Flags: HW
LayerCount: 2
Fore
SplineSet
58 818 m 0
 68 820 91 819 103 816 c 0
 132 811 153 799 166 781 c 0
 180 762 188 726 188 687 c 0
 188 675 186 674 180 670 c 0
 156 655 99 659 88 674 c 0
 86 676 86 678 86 686 c 0
 86 730 75 767 60 780 c 0
 57 782 53 784 48 786 c 0
 38 789 32 791 28 795 c 0
 24 800 24 801 28 806 c 0
 33 811 43 815 58 818 c 0
EndSplineSet
EndChar

StartChar: quotesingle
Encoding: 39 39 103
Width: 121
VWidth: 910
Flags: HW
LayerCount: 2
Fore
SplineSet
43 818 m 0
 68 822 98 816 108 806 c 2
 111 804 l 1
 111 740 l 2
 111 678 111 677 109 674 c 0
 104 666 84 661 61 661 c 0
 37 661 17 666 12 674 c 0
 10 677 10 678 10 740 c 2
 10 803 l 1
 13 806 l 2
 18 811 28 815 43 818 c 0
EndSplineSet
EndChar
